<svg width="448" height="342" fill="none" xmlns="http://www.w3.org/2000/svg"><g filter="url(#a)"><g clip-path="url(#b)"><path d="M57 14c0-6.627 5.373-12 12-12h261c6.627 0 12 5.373 12 12v173.6c0 6.627-5.373 12-12 12H69c-6.627 0-12-5.373-12-12V14Z" fill="#fff"/><path d="M90.5 31.86v1c0 1.4 0 2.1-.272 2.635a2.5 2.5 0 0 1-1.093 1.093c-.535.272-1.235.272-2.635.272h-7c-1.4 0-2.1 0-2.635-.273a2.5 2.5 0 0 1-1.093-1.092c-.272-.535-.272-1.235-.272-2.635v-1m11.667-4.167L83 31.86m0 0-4.167-4.167M83 31.86v-10" stroke="#000" stroke-opacity=".3" strokeWidth="1.5" strokeLinecap="round" strokeLinejoin="round"/><path d="M105.51 34.36h-1.078l-3.066-8.274v8.274h-1.26V24.308h1.834l3.052 8.26 3.066-8.26h1.778V34.36h-1.246v-8.274l-3.08 8.274Zm12.929-3.654c0 2.268-1.4 3.808-3.402 3.808-2.002 0-3.402-1.54-3.402-3.808s1.4-3.808 3.402-3.808c2.002 0 3.402 1.54 3.402 3.808Zm-5.53 0c0 1.666.84 2.73 2.128 2.73 1.288 0 2.128-1.064 2.128-2.73 0-1.68-.84-2.744-2.128-2.744-1.288 0-2.128 1.064-2.128 2.744Zm7.273 3.654v-7.322h1.26v.994a2.606 2.606 0 0 1 2.184-1.134c1.554 0 2.436 1.078 2.436 2.632v4.83h-1.26v-4.494c0-1.022-.434-1.792-1.526-1.792-.91 0-1.834.7-1.834 1.918v4.368h-1.26Zm10.968.154c-2.03 0-3.43-1.554-3.43-3.808 0-2.184 1.386-3.808 3.374-3.808 2.044 0 3.122 1.554 3.122 3.584v.42h-5.292c.07 1.54.952 2.52 2.226 2.52.98 0 1.68-.532 1.904-1.4l1.106.392c-.448 1.302-1.554 2.1-3.01 2.1Zm-.07-6.538c-1.064 0-1.862.714-2.086 1.96h3.948c-.028-1.036-.588-1.96-1.862-1.96Zm7.451 7.182c-.42 1.106-.994 1.806-2.268 1.806-.308 0-.462-.014-.686-.056v-1.092c.238.056.392.07.602.07.546 0 .84-.196 1.134-.924l.35-.868-2.716-7.056h1.33l2.058 5.6 2.03-5.6h1.316l-3.15 8.12Zm10.301-.644c-2.03 0-3.192-1.736-3.192-3.808 0-2.086 1.162-3.808 3.192-3.808 1.022 0 1.834.49 2.268 1.204v-3.794h1.26V34.36h-1.26v-1.064c-.434.728-1.246 1.218-2.268 1.218Zm2.296-4.06c0-1.708-1.036-2.45-2.072-2.45-1.372 0-2.142 1.12-2.142 2.702 0 1.568.77 2.702 2.142 2.702 1.036 0 2.072-.756 2.072-2.436v-.518Zm6.381 4.06c-2.03 0-3.43-1.554-3.43-3.808 0-2.184 1.386-3.808 3.374-3.808 2.044 0 3.122 1.554 3.122 3.584v.42h-5.292c.07 1.54.952 2.52 2.226 2.52.98 0 1.68-.532 1.904-1.4l1.106.392c-.448 1.302-1.554 2.1-3.01 2.1Zm-.07-6.538c-1.064 0-1.862.714-2.086 1.96h3.948c-.028-1.036-.588-1.96-1.862-1.96Zm8.372 6.538c-1.022 0-1.834-.49-2.268-1.218v3.584h-1.26v-9.842h1.26v1.064c.434-.714 1.246-1.204 2.268-1.204 2.03 0 3.192 1.722 3.192 3.808 0 2.072-1.162 3.808-3.192 3.808Zm-2.296-4.06v.518c0 1.68 1.036 2.436 2.072 2.436 1.372 0 2.142-1.134 2.142-2.702 0-1.582-.77-2.702-2.142-2.702-1.036 0-2.072.742-2.072 2.45Zm13.521.252c0 2.268-1.4 3.808-3.402 3.808-2.002 0-3.402-1.54-3.402-3.808s1.4-3.808 3.402-3.808c2.002 0 3.402 1.54 3.402 3.808Zm-5.53 0c0 1.666.84 2.73 2.128 2.73 1.288 0 2.128-1.064 2.128-2.73 0-1.68-.84-2.744-2.128-2.744-1.288 0-2.128 1.064-2.128 2.744Zm6.46 2.1.98-.714c.392.854 1.288 1.372 2.24 1.372.854 0 1.61-.364 1.61-1.162 0-.798-.7-.91-1.904-1.162-1.204-.266-2.464-.532-2.464-2.03 0-1.302 1.134-2.212 2.688-2.212 1.316 0 2.394.644 2.828 1.512l-.896.714c-.378-.728-1.064-1.19-1.988-1.19-.84 0-1.4.42-1.4 1.078 0 .686.644.812 1.666 1.036 1.26.294 2.702.546 2.702 2.142 0 1.4-1.274 2.324-2.842 2.324-1.33 0-2.66-.574-3.22-1.708Zm7.705-7.042v-1.456h1.372v1.456h-1.372Zm1.316 1.274v7.322h-1.26v-7.322h1.26Zm2.439 5.572v-4.494h-1.134v-1.078h1.134v-2.142h1.246v2.142h1.666v1.078h-1.666v4.298c0 .77.378.91 1.022.91.294 0 .504-.014.798-.084v1.078c-.322.07-.686.112-1.106.112-1.246 0-1.96-.42-1.96-1.82Z" fill="#000"/><path d="M234.84 55.96H57v1.52h177.84v-1.52Z" fill="#EAECF0" mask="url(#path-2-inside-1_4_923)"/><path d="M90.5 86.58v1c0 1.4 0 2.1-.272 2.635a2.5 2.5 0 0 1-1.093 1.093c-.535.272-1.235.272-2.635.272h-7c-1.4 0-2.1 0-2.635-.272a2.5 2.5 0 0 1-1.093-1.093c-.272-.535-.272-1.235-.272-2.635v-1m11.667-4.167L83 86.58m0 0-4.167-4.167M83 86.58v-10" stroke="#000" stroke-opacity=".3" strokeWidth="1.5" strokeLinecap="round" strokeLinejoin="round"/><path d="M105.51 89.08h-1.078l-3.066-8.274v8.274h-1.26V79.028h1.834l3.052 8.26 3.066-8.26h1.778V89.08h-1.246v-8.274l-3.08 8.274Zm12.929-3.654c0 2.268-1.4 3.808-3.402 3.808-2.002 0-3.402-1.54-3.402-3.808s1.4-3.808 3.402-3.808c2.002 0 3.402 1.54 3.402 3.808Zm-5.53 0c0 1.666.84 2.73 2.128 2.73 1.288 0 2.128-1.064 2.128-2.73 0-1.68-.84-2.744-2.128-2.744-1.288 0-2.128 1.064-2.128 2.744Zm7.273 3.654v-7.322h1.26v.994a2.606 2.606 0 0 1 2.184-1.134c1.554 0 2.436 1.078 2.436 2.632v4.83h-1.26v-4.494c0-1.022-.434-1.792-1.526-1.792-.91 0-1.834.7-1.834 1.918v4.368h-1.26Zm10.968.154c-2.03 0-3.43-1.554-3.43-3.808 0-2.184 1.386-3.808 3.374-3.808 2.044 0 3.122 1.554 3.122 3.584v.42h-5.292c.07 1.54.952 2.52 2.226 2.52.98 0 1.68-.532 1.904-1.4l1.106.392c-.448 1.302-1.554 2.1-3.01 2.1Zm-.07-6.538c-1.064 0-1.862.714-2.086 1.96h3.948c-.028-1.036-.588-1.96-1.862-1.96Zm7.451 7.182c-.42 1.106-.994 1.806-2.268 1.806-.308 0-.462-.014-.686-.056v-1.092c.238.056.392.07.602.07.546 0 .84-.196 1.134-.924l.35-.868-2.716-7.056h1.33l2.058 5.6 2.03-5.6h1.316l-3.15 8.12Zm10.301-.644c-2.03 0-3.192-1.736-3.192-3.808 0-2.086 1.162-3.808 3.192-3.808 1.022 0 1.834.49 2.268 1.204v-3.794h1.26V89.08h-1.26v-1.064c-.434.728-1.246 1.218-2.268 1.218Zm2.296-4.06c0-1.708-1.036-2.45-2.072-2.45-1.372 0-2.142 1.12-2.142 2.702 0 1.568.77 2.702 2.142 2.702 1.036 0 2.072-.756 2.072-2.436v-.518Zm6.381 4.06c-2.03 0-3.43-1.554-3.43-3.808 0-2.184 1.386-3.808 3.374-3.808 2.044 0 3.122 1.554 3.122 3.584v.42h-5.292c.07 1.54.952 2.52 2.226 2.52.98 0 1.68-.532 1.904-1.4l1.106.392c-.448 1.302-1.554 2.1-3.01 2.1Zm-.07-6.538c-1.064 0-1.862.714-2.086 1.96h3.948c-.028-1.036-.588-1.96-1.862-1.96Zm8.372 6.538c-1.022 0-1.834-.49-2.268-1.218V91.6h-1.26v-9.842h1.26v1.064c.434-.714 1.246-1.204 2.268-1.204 2.03 0 3.192 1.722 3.192 3.808 0 2.072-1.162 3.808-3.192 3.808Zm-2.296-4.06v.518c0 1.68 1.036 2.436 2.072 2.436 1.372 0 2.142-1.134 2.142-2.702 0-1.582-.77-2.702-2.142-2.702-1.036 0-2.072.742-2.072 2.45Zm13.521.252c0 2.268-1.4 3.808-3.402 3.808-2.002 0-3.402-1.54-3.402-3.808s1.4-3.808 3.402-3.808c2.002 0 3.402 1.54 3.402 3.808Zm-5.53 0c0 1.666.84 2.73 2.128 2.73 1.288 0 2.128-1.064 2.128-2.73 0-1.68-.84-2.744-2.128-2.744-1.288 0-2.128 1.064-2.128 2.744Zm6.46 2.1.98-.714c.392.854 1.288 1.372 2.24 1.372.854 0 1.61-.364 1.61-1.162 0-.798-.7-.91-1.904-1.162-1.204-.266-2.464-.532-2.464-2.03 0-1.302 1.134-2.212 2.688-2.212 1.316 0 2.394.644 2.828 1.512l-.896.714c-.378-.728-1.064-1.19-1.988-1.19-.84 0-1.4.42-1.4 1.078 0 .686.644.812 1.666 1.036 1.26.294 2.702.546 2.702 2.142 0 1.4-1.274 2.324-2.842 2.324-1.33 0-2.66-.574-3.22-1.708Zm7.705-7.042v-1.456h1.372v1.456h-1.372Zm1.316 1.274v7.322h-1.26v-7.322h1.26Zm2.439 5.572v-4.494h-1.134v-1.078h1.134v-2.142h1.246v2.142h1.666v1.078h-1.666v4.298c0 .77.378.91 1.022.91.294 0 .504-.014.798-.084v1.078c-.322.07-.686.112-1.106.112-1.246 0-1.96-.42-1.96-1.82Z" fill="#000"/><path d="M234.84 110.68H57v1.52h177.84v-1.52Z" fill="#EAECF0" mask="url(#path-6-inside-2_4_923)"/><path d="M75.5 136.3v-1c0-1.4 0-2.1.272-2.635a2.5 2.5 0 0 1 1.093-1.093c.535-.272 1.235-.272 2.635-.272h7c1.4 0 2.1 0 2.635.272a2.5 2.5 0 0 1 1.093 1.093c.272.535.272 1.235.272 2.635v1m-11.667 4.167L83 136.3m0 0 4.167 4.167M83 136.3v10" stroke="#000" stroke-opacity=".3" strokeWidth="1.5" strokeLinecap="round" strokeLinejoin="round"/><path d="M105.51 143.8h-1.078l-3.066-8.274v8.274h-1.26v-10.052h1.834l3.052 8.26 3.066-8.26h1.778V143.8h-1.246v-8.274l-3.08 8.274Zm12.929-3.654c0 2.268-1.4 3.808-3.402 3.808-2.002 0-3.402-1.54-3.402-3.808s1.4-3.808 3.402-3.808c2.002 0 3.402 1.54 3.402 3.808Zm-5.53 0c0 1.666.84 2.73 2.128 2.73 1.288 0 2.128-1.064 2.128-2.73 0-1.68-.84-2.744-2.128-2.744-1.288 0-2.128 1.064-2.128 2.744Zm7.273 3.654v-7.322h1.26v.994a2.606 2.606 0 0 1 2.184-1.134c1.554 0 2.436 1.078 2.436 2.632v4.83h-1.26v-4.494c0-1.022-.434-1.792-1.526-1.792-.91 0-1.834.7-1.834 1.918v4.368h-1.26Zm10.968.154c-2.03 0-3.43-1.554-3.43-3.808 0-2.184 1.386-3.808 3.374-3.808 2.044 0 3.122 1.554 3.122 3.584v.42h-5.292c.07 1.54.952 2.52 2.226 2.52.98 0 1.68-.532 1.904-1.4l1.106.392c-.448 1.302-1.554 2.1-3.01 2.1Zm-.07-6.538c-1.064 0-1.862.714-2.086 1.96h3.948c-.028-1.036-.588-1.96-1.862-1.96Zm7.451 7.182c-.42 1.106-.994 1.806-2.268 1.806-.308 0-.462-.014-.686-.056v-1.092c.238.056.392.07.602.07.546 0 .84-.196 1.134-.924l.35-.868-2.716-7.056h1.33l2.058 5.6 2.03-5.6h1.316l-3.15 8.12Zm12.429-10.85h1.19l2.128 8.05 2.142-8.05h1.33l-2.758 10.052h-1.316l-2.142-7.826-2.128 7.826h-1.316l-2.772-10.052h1.386l2.142 8.05 2.114-8.05Zm8.119 1.456v-1.456h1.372v1.456h-1.372Zm1.316 1.274v7.322h-1.26v-7.322h1.26Zm2.44 5.572v-4.494h-1.134v-1.078h1.134v-2.142h1.246v2.142h1.666v1.078h-1.666v4.298c0 .77.378.91 1.022.91.294 0 .504-.014.798-.084v1.078c-.322.07-.686.112-1.106.112-1.246 0-1.96-.42-1.96-1.82Zm4.702 1.75v-10.052h1.26v3.724a2.606 2.606 0 0 1 2.184-1.134c1.554 0 2.436 1.078 2.436 2.632v4.83h-1.26v-4.494c0-1.022-.434-1.792-1.526-1.792-.91 0-1.834.7-1.834 1.918v4.368h-1.26Zm10.73.154c-2.03 0-3.192-1.736-3.192-3.808 0-2.086 1.162-3.808 3.192-3.808 1.022 0 1.834.49 2.268 1.204v-3.794h1.26V143.8h-1.26v-1.064c-.434.728-1.246 1.218-2.268 1.218Zm2.296-4.06c0-1.708-1.036-2.45-2.072-2.45-1.372 0-2.142 1.12-2.142 2.702 0 1.568.77 2.702 2.142 2.702 1.036 0 2.072-.756 2.072-2.436v-.518Zm7.249-3.444v1.274a2.88 2.88 0 0 0-.616-.056c-1.064 0-1.918.84-1.918 2.128v4.004h-1.26v-7.322h1.26v1.246c.322-.742 1.036-1.302 2.03-1.302.196 0 .378.014.504.028Zm3.211 7.476c-1.33 0-2.408-.784-2.408-2.1 0-1.456 1.134-2.058 2.772-2.394l1.778-.364v-.308c0-.84-.462-1.316-1.442-1.316-.924 0-1.47.434-1.694 1.246l-1.19-.308c.35-1.19 1.428-2.044 2.926-2.044 1.638 0 2.646.798 2.646 2.366v3.57c0 .476.294.63.784.518v1.008c-1.12.14-1.764-.126-1.918-.826-.448.574-1.26.952-2.254.952Zm2.142-2.618v-1.26l-1.428.308c-1.12.224-1.876.532-1.876 1.414 0 .714.518 1.134 1.316 1.134 1.078 0 1.988-.658 1.988-1.596Zm6.937-4.83h1.064l1.512 5.46 1.526-5.46h1.26l-2.226 7.322h-1.106l-1.526-5.432-1.526 5.432h-1.106l-2.226-7.322h1.302l1.54 5.446 1.512-5.446Z" fill="#000"/><path d="M234.84 165.4H57v1.52h177.84v-1.52Z" fill="#EAECF0" mask="url(#path-10-inside-3_4_923)"/><path d="M79.8 192.76v3.04m9.12-4.56v3.04m-.76-6.84c1.861 0 2.868.285 3.368.505.067.03.1.045.197.136.057.056.163.217.19.292a.808.808 0 0 1 .045.33v8.169c0 .691 0 1.036-.104 1.214a.666.666 0 0 1-.404.334c-.194.068-.585-.007-1.367-.158a10.239 10.239 0 0 0-1.925-.182c-2.28 0-4.56 1.52-7.6 1.52-1.861 0-2.868-.285-3.368-.506a.532.532 0 0 1-.197-.136 1.114 1.114 0 0 1-.19-.292c-.045-.125-.045-.193-.045-.33v-8.169c0-.69 0-1.036.104-1.213a.66.66 0 0 1 .404-.334c.194-.068.585.007 1.368.157a10.22 10.22 0 0 0 1.924.183c2.28 0 4.56-1.52 7.6-1.52Zm-1.9 6.08a1.9 1.9 0 1 1-3.8 0 1.9 1.9 0 0 1 3.8 0Z" stroke="#000" strokeWidth="1.52" strokeLinecap="round" strokeLinejoin="round"/><path d="M103.501 189.52v-8.185h2.599c2.485 0 4.058 1.596 4.058 4.092 0 2.497-1.573 4.093-4.058 4.093h-2.599Zm1.071-.946h1.528c1.858 0 2.987-1.243 2.987-3.147 0-1.915-1.129-3.146-2.999-3.146h-1.516v6.293Zm9.259 1.071c-1.653 0-2.793-1.265-2.793-3.101 0-1.778 1.129-3.1 2.747-3.1 1.665 0 2.543 1.265 2.543 2.918v.342h-4.31c.057 1.254.776 2.052 1.813 2.052.798 0 1.368-.433 1.55-1.14l.901.319c-.365 1.06-1.265 1.71-2.451 1.71Zm-.057-5.324c-.866 0-1.516.582-1.699 1.596h3.215c-.023-.843-.479-1.596-1.516-1.596Zm6.704 5.324c-.833 0-1.494-.399-1.847-.992v2.919h-1.026v-8.014h1.026v.866c.353-.581 1.014-.98 1.847-.98 1.653 0 2.599 1.402 2.599 3.1 0 1.688-.946 3.101-2.599 3.101Zm-1.87-3.306v.422c0 1.368.844 1.984 1.687 1.984 1.117 0 1.744-.924 1.744-2.201 0-1.288-.627-2.2-1.744-2.2-.843 0-1.687.604-1.687 1.995Zm10.896.205c0 1.847-1.14 3.101-2.771 3.101-1.63 0-2.77-1.254-2.77-3.101 0-1.846 1.14-3.1 2.77-3.1 1.631 0 2.771 1.254 2.771 3.1Zm-4.503 0c0 1.357.684 2.223 1.732 2.223 1.049 0 1.733-.866 1.733-2.223 0-1.368-.684-2.234-1.733-2.234-1.048 0-1.732.866-1.732 2.234Zm5.146 1.71.798-.581c.319.695 1.049 1.117 1.824 1.117.696 0 1.311-.296 1.311-.946 0-.65-.57-.741-1.55-.946-.981-.217-2.007-.433-2.007-1.653 0-1.06.924-1.801 2.189-1.801 1.072 0 1.95.524 2.303 1.231l-.73.581c-.307-.593-.866-.969-1.618-.969-.684 0-1.14.342-1.14.878 0 .559.524.661 1.356.844 1.026.239 2.2.444 2.2 1.744 0 1.14-1.037 1.892-2.314 1.892-1.083 0-2.166-.467-2.622-1.391Zm6.16-5.734v-1.185h1.117v1.185h-1.117Zm1.071 1.038v5.962h-1.026v-5.962h1.026Zm1.873 4.537v-3.66h-.924v-.877h.924v-1.745h1.014v1.745h1.357v.877h-1.357v3.5c0 .627.308.741.833.741.239 0 .41-.011.649-.068v.878a4.208 4.208 0 0 1-.9.091c-1.015 0-1.596-.342-1.596-1.482Zm8.811-1.551c0 1.847-1.14 3.101-2.77 3.101-1.63 0-2.77-1.254-2.77-3.101 0-1.846 1.14-3.1 2.77-3.1 1.63 0 2.77 1.254 2.77 3.1Zm-4.503 0c0 1.357.684 2.223 1.733 2.223s1.733-.866 1.733-2.223c0-1.368-.684-2.234-1.733-2.234s-1.733.866-1.733 2.234Z" fill="#000"/><path d="M105.94 197.335h1.209l3.157 8.185h-1.105l-.833-2.155h-3.67l-.821 2.155h-1.095l3.158-8.185Zm.582 1.231-1.46 3.842h2.942l-1.482-3.842Zm7.632 7.079c-.832 0-1.493-.399-1.847-.992v2.919h-1.026v-8.014h1.026v.866c.354-.581 1.015-.98 1.847-.98 1.653 0 2.599 1.402 2.599 3.1 0 1.688-.946 3.101-2.599 3.101Zm-1.869-3.306v.422c0 1.368.843 1.984 1.687 1.984 1.117 0 1.744-.924 1.744-2.201 0-1.288-.627-2.2-1.744-2.2-.844 0-1.687.604-1.687 1.995Zm8.855-2.804v1.037a2.362 2.362 0 0 0-.502-.045c-.866 0-1.562.684-1.562 1.732v3.261h-1.026v-5.962h1.026v1.014c.262-.604.844-1.06 1.653-1.06.16 0 .308.011.411.023Zm.055 5.985v-1.345h1.3v1.413c0 .889-.57 1.425-1.482 1.448v-.593c.513-.023.775-.285.775-.832v-.091h-.593Zm4.715-.901 2.417-2.006c1.117-.924 1.983-1.71 1.983-2.782 0-1.003-.649-1.687-1.653-1.687-.98 0-1.653.752-1.653 1.687 0 .297.069.604.183.889h-1.026c-.126-.353-.183-.627-.183-.946 0-1.459 1.197-2.565 2.702-2.565 1.653 0 2.702 1.049 2.702 2.554 0 1.391-.958 2.348-2.132 3.294l-1.847 1.505h4.139v.958h-5.632v-.901Zm9.209 1.026c-1.562 0-2.805-.855-3.067-2.485l1.06-.228c.16 1.14.969 1.801 1.995 1.801 1.038 0 1.756-.593 1.756-1.562 0-.969-.787-1.447-1.824-1.447h-.878v-.924h.889c.947 0 1.585-.479 1.585-1.299 0-.844-.581-1.368-1.516-1.368-.981 0-1.665.649-1.847 1.675l-.98-.193c.216-1.368 1.276-2.406 2.85-2.406 1.596 0 2.519.935 2.519 2.235 0 .889-.57 1.573-1.265 1.801.82.228 1.527.855 1.527 1.983 0 1.346-1.106 2.417-2.804 2.417Zm5.976-1.026 2.417-2.006c1.117-.924 1.984-1.71 1.984-2.782 0-1.003-.65-1.687-1.653-1.687-.981 0-1.653.752-1.653 1.687 0 .297.068.604.182.889h-1.026c-.125-.353-.182-.627-.182-.946 0-1.459 1.197-2.565 2.701-2.565 1.653 0 2.702 1.049 2.702 2.554 0 1.391-.957 2.348-2.132 3.294l-1.846 1.505h4.138v.958h-5.632v-.901Zm6.347-3.192c0-2.496 1.174-4.218 3.124-4.218 1.938 0 3.112 1.722 3.112 4.218 0 2.497-1.174 4.218-3.112 4.218-1.95 0-3.124-1.721-3.124-4.218Zm1.094 0c0 1.915.696 3.261 2.03 3.261 1.322 0 2.029-1.346 2.029-3.261s-.707-3.26-2.029-3.26c-1.334 0-2.03 1.345-2.03 3.26Zm5.896 3.192 2.417-2.006c1.117-.924 1.984-1.71 1.984-2.782 0-1.003-.65-1.687-1.653-1.687-.981 0-1.653.752-1.653 1.687 0 .297.068.604.182.889h-1.026c-.125-.353-.182-.627-.182-.946 0-1.459 1.197-2.565 2.702-2.565 1.653 0 2.701 1.049 2.701 2.554 0 1.391-.957 2.348-2.131 3.294l-1.847 1.505h4.138v.958h-5.632v-.901Zm9.209 1.026c-1.562 0-2.804-.855-3.067-2.485l1.061-.228c.159 1.14.969 1.801 1.995 1.801 1.037 0 1.755-.593 1.755-1.562 0-.969-.786-1.447-1.824-1.447h-.878v-.924h.89c.946 0 1.584-.479 1.584-1.299 0-.844-.581-1.368-1.516-1.368-.98 0-1.664.649-1.847 1.675l-.98-.193c.216-1.368 1.277-2.406 2.85-2.406 1.596 0 2.519.935 2.519 2.235 0 .889-.57 1.573-1.265 1.801.821.228 1.527.855 1.527 1.983 0 1.346-1.105 2.417-2.804 2.417Z" fill="#000" fill-opacity=".3"/><path d="M243.2 220.12H57v1.52h186.2v-1.52Z" fill="#EAECF0" mask="url(#path-14-inside-4_4_923)"/><path d="M255.031 32.315v-3.008h-2.994v-1.326h2.994v-2.994h1.34v2.994h3.001v1.326h-3.001v3.008h-1.34Zm14.397 1.736c-2.133 0-3.616-1.34-4.136-3.493h-1.866l.512-1.21h1.169a9.835 9.835 0 0 1-.006-1.19h-1.675l.512-1.21h1.333c.506-2.207 1.997-3.575 4.157-3.575 1.818 0 3.151.957 3.753 2.714l-1.34.431c-.41-1.148-1.237-1.818-2.413-1.818-1.306 0-2.195.834-2.577 2.249h2.631l-.512 1.21h-2.311a7.75 7.75 0 0 0 .007 1.19h2.816l-.512 1.209h-2.099c.397 1.36 1.278 2.167 2.557 2.167 1.176 0 2.003-.67 2.413-1.818l1.34.424c-.602 1.756-1.935 2.72-3.753 2.72Zm13.248-.191v-2.393h-5.373v-1.223l5.373-6.672h1.49v6.562h1.791v1.333h-1.791v2.393h-1.49Zm-3.753-3.726h3.753v-4.69l-3.753 4.69Zm11.641 3.924c-2.139 0-3.705-1.203-3.793-3.267l1.449-.055c.253 1.606 1.285 2.037 2.331 2.037 1.299 0 2.167-.848 2.167-2.201 0-1.402-.998-2.222-2.174-2.222-1.005 0-1.736.43-2.071 1.094l-1.347-.171.766-5.701h5.776v1.326h-4.56l-.41 2.919c.52-.458 1.285-.738 2.208-.738 1.935 0 3.391 1.38 3.391 3.5 0 2.119-1.695 3.479-3.733 3.479Zm8.956 0c-2.708 0-3.993-2.14-3.993-5.346s1.285-5.338 3.993-5.338c2.707 0 3.992 2.132 3.992 5.338s-1.285 5.346-3.992 5.346Zm0-1.306c1.565 0 2.426-1.292 2.426-4.04 0-2.74-.861-4.033-2.426-4.033-1.566 0-2.427 1.292-2.427 4.033 0 2.748.861 4.04 2.427 4.04Zm4.416 2.755 1.045-3.274h1.566l-1.292 3.274h-1.319Zm7.71-1.449c-2.707 0-3.992-2.14-3.992-5.346s1.285-5.338 3.992-5.338c2.708 0 3.993 2.132 3.993 5.338s-1.285 5.346-3.993 5.346Zm0-1.306c1.566 0 2.427-1.292 2.427-4.04 0-2.74-.861-4.033-2.427-4.033-1.565 0-2.426 1.292-2.426 4.033 0 2.748.861 4.04 2.426 4.04Zm9.379 1.306c-2.707 0-3.992-2.14-3.992-5.346s1.285-5.338 3.992-5.338 3.993 2.132 3.993 5.338-1.286 5.346-3.993 5.346Zm0-1.306c1.566 0 2.427-1.292 2.427-4.04 0-2.74-.861-4.033-2.427-4.033-1.565 0-2.426 1.292-2.426 4.033 0 2.748.861 4.04 2.426 4.04Z" fill="#9AB696"/><path d="M342 55.96H234.84v1.52H342v-1.52Z" fill="#EAECF0" mask="url(#path-19-inside-5_4_923)"/><path d="M255.031 87.035v-3.008h-2.994V82.7h2.994v-2.994h1.34V82.7h3.001v1.326h-3.001v3.008h-1.34Zm14.397 1.736c-2.133 0-3.617-1.34-4.136-3.493h-1.866l.512-1.21h1.169a10.044 10.044 0 0 1-.007-1.19h-1.674l.512-1.21h1.333c.506-2.208 1.996-3.575 4.157-3.575 1.818 0 3.151.957 3.753 2.714l-1.34.43c-.41-1.148-1.238-1.818-2.413-1.818-1.306 0-2.195.834-2.578 2.25h2.632l-.512 1.21h-2.311c-.027.396-.027.792.007 1.189h2.816l-.512 1.21h-2.099c.396 1.36 1.278 2.167 2.557 2.167 1.175 0 2.003-.67 2.413-1.819l1.34.424c-.602 1.757-1.935 2.721-3.753 2.721Zm13.248-.191v-2.393h-5.373v-1.224l5.373-6.671h1.49v6.562h1.791v1.333h-1.791v2.393h-1.49Zm-3.753-3.726h3.753v-4.69l-3.753 4.69Zm11.641 3.924c-2.139 0-3.705-1.203-3.794-3.268l1.45-.054c.253 1.606 1.285 2.037 2.331 2.037 1.299 0 2.167-.848 2.167-2.201 0-1.402-.998-2.222-2.174-2.222-1.005 0-1.736.43-2.071 1.094l-1.347-.171.766-5.701h5.776v1.326h-4.56l-.41 2.919c.52-.458 1.285-.739 2.208-.739 1.935 0 3.391 1.381 3.391 3.5 0 2.12-1.696 3.48-3.733 3.48Zm8.955 0c-2.707 0-3.992-2.14-3.992-5.346s1.285-5.339 3.992-5.339 3.993 2.133 3.993 5.34c0 3.205-1.286 5.345-3.993 5.345Zm0-1.306c1.566 0 2.427-1.292 2.427-4.04 0-2.741-.861-4.033-2.427-4.033-1.565 0-2.426 1.292-2.426 4.033 0 2.748.861 4.04 2.426 4.04Zm4.416 2.755 1.046-3.274h1.566l-1.292 3.274h-1.32Zm7.711-1.45c-2.707 0-3.992-2.139-3.992-5.345s1.285-5.339 3.992-5.339 3.993 2.133 3.993 5.34c0 3.205-1.286 5.345-3.993 5.345Zm0-1.305c1.566 0 2.427-1.292 2.427-4.04 0-2.741-.861-4.033-2.427-4.033-1.565 0-2.426 1.292-2.426 4.033 0 2.748.861 4.04 2.426 4.04Zm9.379 1.306c-2.707 0-3.992-2.14-3.992-5.346s1.285-5.339 3.992-5.339 3.992 2.133 3.992 5.34c0 3.205-1.285 5.345-3.992 5.345Zm0-1.306c1.566 0 2.427-1.292 2.427-4.04 0-2.741-.861-4.033-2.427-4.033-1.565 0-2.426 1.292-2.426 4.033 0 2.748.861 4.04 2.426 4.04Z" fill="#9AB696"/><path d="M342 110.68H234.84v1.52H342v-1.52Z" fill="#EAECF0" mask="url(#path-22-inside-6_4_923)"/><path d="M244.031 140.285v-1.333h6.706v1.333h-6.706Zm16.892 3.206c-2.133 0-3.616-1.34-4.136-3.493h-1.866l.513-1.21h1.168a9.843 9.843 0 0 1-.006-1.19h-1.675l.513-1.21h1.333c.505-2.208 1.996-3.575 4.156-3.575 1.818 0 3.151.957 3.753 2.714l-1.34.431c-.41-1.149-1.237-1.819-2.413-1.819-1.306 0-2.195.834-2.577 2.249h2.631l-.512 1.21h-2.311a7.75 7.75 0 0 0 .007 1.19h2.816l-.512 1.21h-2.099c.397 1.36 1.278 2.167 2.557 2.167 1.176 0 2.003-.67 2.413-1.819l1.34.424c-.602 1.757-1.935 2.721-3.753 2.721Zm10.028-.191v-9.003h-2.242v-1.285h3.732V143.3h-1.49Zm4.512.198c-.588 0-1.026-.417-1.026-1.026 0-.615.438-1.011 1.026-1.011.581 0 1.012.396 1.012 1.011 0 .609-.431 1.026-1.012 1.026Zm6.036 0c-2.14 0-3.705-1.203-3.794-3.268l1.449-.054c.253 1.606 1.285 2.037 2.331 2.037 1.299 0 2.167-.848 2.167-2.201 0-1.402-.998-2.222-2.174-2.222-1.004 0-1.736.431-2.071 1.094l-1.347-.171.766-5.701h5.776v1.326h-4.559l-.41 2.919c.519-.458 1.285-.739 2.208-.739 1.934 0 3.39 1.381 3.39 3.5 0 2.12-1.695 3.48-3.732 3.48Zm9.857-.198v-2.393h-5.373v-1.224l5.373-6.671h1.491v6.562h1.791v1.333h-1.791v2.393h-1.491Zm-3.753-3.726h3.753v-4.689l-3.753 4.689Zm12.039 3.924c-2.708 0-3.993-2.14-3.993-5.346s1.285-5.339 3.993-5.339c2.707 0 3.992 2.133 3.992 5.339 0 3.206-1.285 5.346-3.992 5.346Zm0-1.306c1.565 0 2.426-1.292 2.426-4.04 0-2.741-.861-4.033-2.426-4.033-1.566 0-2.427 1.292-2.427 4.033 0 2.748.861 4.04 2.427 4.04Zm4.416 2.755 1.045-3.274h1.566l-1.292 3.274h-1.319Zm7.71-1.449c-2.707 0-3.992-2.14-3.992-5.346s1.285-5.339 3.992-5.339 3.993 2.133 3.993 5.339c0 3.206-1.286 5.346-3.993 5.346Zm0-1.306c1.566 0 2.427-1.292 2.427-4.04 0-2.741-.861-4.033-2.427-4.033-1.565 0-2.426 1.292-2.426 4.033 0 2.748.861 4.04 2.426 4.04Zm9.379 1.306c-2.707 0-3.992-2.14-3.992-5.346s1.285-5.339 3.992-5.339 3.993 2.133 3.993 5.339c0 3.206-1.286 5.346-3.993 5.346Zm0-1.306c1.566 0 2.427-1.292 2.427-4.04 0-2.741-.861-4.033-2.427-4.033-1.565 0-2.426 1.292-2.426 4.033 0 2.748.861 4.04 2.426 4.04Z" fill="#CD644D"/><path d="M342 165.4H234.84v1.52H342v-1.52Z" fill="#EAECF0" mask="url(#path-25-inside-7_4_923)"/><path d="M253.149 198.227c-2.165 0-3.494-1.41-3.494-3.541h1.81c0 1.383.768 1.931 1.697 1.931.928 0 1.656-.548 1.656-1.931v-6.719h1.804v6.719c0 2.131-1.316 3.541-3.473 3.541Zm8.202 0c-2.104 0-3.593-1.597-3.593-3.774 0-2.171 1.489-3.768 3.593-3.768 1.076 0 1.924.461 2.378 1.069v-.862h1.744v7.128h-1.744v-.862c-.454.608-1.302 1.069-2.378 1.069Zm.355-1.523c1.202 0 2.144-.862 2.144-2.251 0-1.383-.942-2.245-2.144-2.245-1.189 0-2.131.862-2.131 2.245 0 1.389.942 2.251 2.131 2.251Zm5.504 1.316v-7.121h1.743v.802c.454-.635 1.183-1.009 2.231-1.009 1.69 0 2.672 1.122 2.672 2.992v4.336h-1.743v-3.901c0-1.256-.555-1.924-1.577-1.924-1.028 0-1.583.668-1.583 1.924v3.901h-1.743Zm14.602.207c-2.151 0-3.707-1.176-3.807-3.253l1.71-.067c.207 1.403 1.115 1.817 2.057 1.817 1.156 0 1.931-.755 1.931-1.944 0-1.242-.896-1.964-1.938-1.964-.875 0-1.523.374-1.823.955l-1.623-.187.768-5.617h5.871v1.549h-4.422l-.354 2.492c.515-.414 1.236-.661 2.098-.661 1.917 0 3.306 1.349 3.306 3.433 0 2.084-1.67 3.447-3.774 3.447Zm4.102 1.456 1.075-3.347h1.85l-1.335 3.347h-1.59Zm6.653-1.663v-1.423l2.205-1.891c2.224-1.943 2.972-2.732 2.972-3.921 0-.941-.615-1.516-1.623-1.516-.949 0-1.797.368-1.824 1.971l-1.736-.047c-.007-2.271 1.609-3.433 3.647-3.433 1.99 0 3.4 1.015 3.4 2.865 0 1.864-1.156 2.906-3.48 4.936l-1.083.936h4.743v1.523h-7.221Zm12.305.207c-2.726 0-4.088-2.064-4.088-5.237s1.362-5.23 4.088-5.23c2.732 0 4.094 2.057 4.094 5.23 0 3.173-1.362 5.237-4.094 5.237Zm0-1.543c1.422 0 2.224-1.169 2.224-3.694 0-2.518-.802-3.687-2.224-3.687-1.417 0-2.218 1.169-2.218 3.687 0 2.525.801 3.694 2.218 3.694Zm5.116 1.336v-1.423l2.205-1.891c2.224-1.943 2.972-2.732 2.972-3.921 0-.941-.614-1.516-1.623-1.516-.948 0-1.797.368-1.824 1.971l-1.736-.047c-.007-2.271 1.61-3.433 3.647-3.433 1.99 0 3.4 1.015 3.4 2.865 0 1.864-1.156 2.906-3.48 4.936l-1.082.936h4.742v1.523h-7.221Zm8.183 0v-1.423l2.205-1.891c2.224-1.943 2.972-2.732 2.972-3.921 0-.941-.614-1.516-1.623-1.516-.949 0-1.797.368-1.824 1.971l-1.736-.047c-.007-2.271 1.609-3.433 3.647-3.433 1.99 0 3.4 1.015 3.4 2.865 0 1.864-1.156 2.906-3.48 4.936l-1.083.936h4.743v1.523h-7.221Z" fill="#475467"/><path d="M342 220.12H234.84v1.52H342v-1.52Z" fill="#EAECF0" mask="url(#path-28-inside-8_4_923)"/><path transform="rotate(90 342 111)" fill="url(#c)" d="M342 111h73v285h-73z"/></g></g><g filter="url(#d)"><rect x="5" y="154.5" width="388" height="142" rx="12" fill="#fff" shape-rendering="crispEdges"/><rect x="25" y="174.5" width="40" height="40" rx="20" fill="#BDFF1C"/><path d="m51 192.5-3.434 3.434c-.198.198-.297.297-.412.334a.495.495 0 0 1-.309 0c-.114-.037-.213-.136-.41-.334l-2.87-2.868c-.197-.198-.296-.297-.41-.334a.495.495 0 0 0-.31 0c-.114.037-.213.136-.41.334L39 196.5m16-2c0 5.523-4.477 10-10 10s-10-4.477-10-10 4.477-10 10-10 10 4.477 10 10Z" stroke="#000" stroke-opacity=".7" strokeWidth="2" strokeLinecap="round" strokeLinejoin="round"/><path d="M78.264 189.512h7.504v1.344h-5.984v3.536h5.072v1.344h-5.072v3.92h5.984V201h-7.504v-11.488ZM93.028 201l-2.32-3.296L88.404 201h-1.568l3.056-4.368-2.8-4h1.648l2.016 2.928 2.048-2.928h1.584l-2.8 4L94.66 201h-1.632Zm7.165.176c-1.168 0-2.096-.56-2.592-1.392v4.096h-1.44v-11.248h1.44v1.216c.496-.816 1.424-1.376 2.592-1.376 2.32 0 3.648 1.968 3.648 4.352 0 2.368-1.328 4.352-3.648 4.352Zm-2.624-4.64v.592c0 1.92 1.184 2.784 2.368 2.784 1.568 0 2.448-1.296 2.448-3.088 0-1.808-.88-3.088-2.448-3.088-1.184 0-2.368.848-2.368 2.8Zm11.596 4.64c-2.32 0-3.92-1.776-3.92-4.352 0-2.496 1.584-4.352 3.856-4.352 2.336 0 3.568 1.776 3.568 4.096v.48h-6.048c.08 1.76 1.088 2.88 2.544 2.88 1.12 0 1.92-.608 2.176-1.6l1.264.448c-.512 1.488-1.776 2.4-3.44 2.4Zm-.08-7.472c-1.216 0-2.128.816-2.384 2.24h4.512c-.032-1.184-.672-2.24-2.128-2.24Zm6.4 3.12c0 1.904 1.024 3.088 2.512 3.088 1.152 0 1.84-.736 2.08-1.776l1.28.592c-.4 1.392-1.616 2.448-3.36 2.448-2.336 0-3.952-1.776-3.952-4.352 0-2.592 1.616-4.352 3.952-4.352 1.744 0 2.928 1.008 3.328 2.4l-1.248.624c-.24-1.024-.928-1.776-2.08-1.776-1.488 0-2.512 1.184-2.512 3.104Zm7.833 2.176v-5.136h-1.296v-1.232h1.296v-2.448h1.424v2.448h1.904v1.232h-1.904v4.912c0 .88.432 1.04 1.168 1.04.336 0 .576-.016.912-.096v1.232c-.368.08-.784.128-1.264.128-1.424 0-2.24-.48-2.24-2.08Zm8.67 2.176c-2.32 0-3.92-1.776-3.92-4.352 0-2.496 1.584-4.352 3.856-4.352 2.336 0 3.568 1.776 3.568 4.096v.48h-6.048c.08 1.76 1.088 2.88 2.544 2.88 1.12 0 1.92-.608 2.176-1.6l1.264.448c-.512 1.488-1.776 2.4-3.44 2.4Zm-.08-7.472c-1.216 0-2.128.816-2.384 2.24h4.512c-.032-1.184-.672-2.24-2.128-2.24Zm8.609 7.472c-2.32 0-3.648-1.984-3.648-4.352 0-2.384 1.328-4.352 3.648-4.352 1.168 0 2.096.56 2.592 1.376v-4.336h1.44V201h-1.44v-1.216c-.496.832-1.424 1.392-2.592 1.392Zm2.624-4.64c0-1.952-1.184-2.8-2.368-2.8-1.568 0-2.448 1.28-2.448 3.088 0 1.792.88 3.088 2.448 3.088 1.184 0 2.368-.864 2.368-2.784v-.592Zm11.819-3.936v1.456a3.292 3.292 0 0 0-.704-.064c-1.216 0-2.192.96-2.192 2.432V201h-1.44v-8.368h1.44v1.424c.368-.848 1.184-1.488 2.32-1.488.224 0 .432.016.576.032Zm4.746 8.576c-2.32 0-3.92-1.776-3.92-4.352 0-2.496 1.584-4.352 3.856-4.352 2.336 0 3.568 1.776 3.568 4.096v.48h-6.048c.08 1.76 1.088 2.88 2.544 2.88 1.12 0 1.92-.608 2.176-1.6l1.264.448c-.512 1.488-1.776 2.4-3.44 2.4Zm-.08-7.472c-1.216 0-2.128.816-2.384 2.24h4.512c-.032-1.184-.672-2.24-2.128-2.24Zm5.761 5.296v-5.136h-1.296v-1.232h1.296v-2.448h1.424v2.448h1.904v1.232h-1.904v4.912c0 .88.432 1.04 1.168 1.04.336 0 .576-.016.912-.096v1.232c-.368.08-.784.128-1.264.128-1.424 0-2.24-.48-2.24-2.08Zm11.935-6.368V201h-1.44v-1.152c-.48.704-1.296 1.328-2.48 1.328-1.792 0-2.8-1.232-2.8-3.008v-5.536h1.44v5.232c0 1.184.512 1.984 1.744 1.984 1.04 0 2.096-.784 2.096-2.176v-5.04h1.44Zm6.888-.032v1.456a3.292 3.292 0 0 0-.704-.064c-1.216 0-2.192.96-2.192 2.432V201h-1.44v-8.368h1.44v1.424c.368-.848 1.184-1.488 2.32-1.488.224 0 .432.016.576.032Zm1.746 8.4v-8.368h1.44v1.136a2.978 2.978 0 0 1 2.496-1.296c1.776 0 2.784 1.232 2.784 3.008V201h-1.44v-5.136c0-1.168-.496-2.048-1.744-2.048-1.04 0-2.096.8-2.096 2.192V201h-1.44Z" fill="#000"/><rect x="283" y="181.5" width="90" height="26" rx="13" fill="#854DFF" fill-opacity=".1"/><path d="M295.877 199.712c-2.262 0-3.848-1.21-3.951-3.357l1.737-.068c.218 1.477 1.162 1.887 2.255 1.887 1.005 0 1.846-.54 1.846-1.648 0-1.046-.868-1.681-2.304-1.681h-.485v-1.408h.472c1.319 0 1.955-.575 1.955-1.511 0-.882-.615-1.395-1.566-1.395-1.066 0-1.688.492-1.832 1.689l-1.743-.075c.212-2.072 1.682-3.145 3.651-3.145 2.037 0 3.377.991 3.377 2.741 0 1.073-.616 1.86-1.511 2.27v.013c1.08.356 1.921 1.21 1.921 2.571 0 1.975-1.716 3.117-3.822 3.117Zm8.747 0c-2.29 0-3.869-1.477-3.869-3.623 0-1.183.581-2.119 1.593-3.527l2.351-3.35h2.099l-2.365 3.343c.164-.014.335-.021.492-.021 2.092 0 3.561 1.463 3.561 3.555 0 2.16-1.565 3.623-3.862 3.623Zm0-1.579c1.169 0 1.989-.821 1.989-2.003 0-1.19-.82-2.01-1.989-2.01-1.183 0-2.003.82-2.003 2.01 0 1.182.82 2.003 2.003 2.003Zm8.409 1.367v-7.287h1.784v.82c.465-.649 1.087-1.032 2.215-1.032 1.162 0 1.948.485 2.351 1.347.554-.964 1.477-1.347 2.557-1.347 1.784 0 2.686 1.148 2.686 3.062v4.437h-1.784v-3.992c0-1.285-.458-1.969-1.558-1.969-1.053 0-1.566.684-1.566 1.969v3.992h-1.784v-3.992c0-1.285-.458-1.969-1.559-1.969-1.046 0-1.558.684-1.558 1.969v3.992h-1.784Zm16.888.212c-2.324 0-3.999-1.641-3.999-3.876 0-2.222 1.675-3.862 3.999-3.862 2.331 0 4.013 1.64 4.013 3.862 0 2.235-1.682 3.876-4.013 3.876Zm0-1.566c1.312 0 2.201-.957 2.201-2.31 0-1.347-.889-2.297-2.201-2.297-1.306 0-2.188.95-2.188 2.297 0 1.353.882 2.31 2.188 2.31Zm5.404 1.354v-7.287h1.784v.82c.465-.649 1.21-1.032 2.283-1.032 1.73 0 2.735 1.148 2.735 3.062v4.437h-1.785v-3.992c0-1.285-.567-1.969-1.613-1.969-1.053 0-1.62.684-1.62 1.969v3.992h-1.784Zm12.014.103c-1.552 0-2.707-.575-2.707-2.571v-3.288h-1.593v-1.538h1.593v-2.352h1.784v2.352h2.283v1.538h-2.283v3.056c0 1.012.554 1.264 1.333 1.264a6.7 6.7 0 0 0 .909-.068v1.477c-.451.082-.895.13-1.319.13Zm2.663-.103v-10.985h1.784v4.518c.465-.649 1.21-1.032 2.283-1.032 1.73 0 2.735 1.148 2.735 3.062v4.437h-1.785v-3.992c0-1.285-.567-1.969-1.613-1.969-1.053 0-1.62.684-1.62 1.969v3.992h-1.784Zm11.153.205c-1.395 0-2.618-.629-3.227-1.729l1.21-.923c.451.841 1.128 1.271 1.976 1.271.677 0 1.182-.314 1.182-.834 0-.492-.362-.738-1.237-.957l-.697-.178c-1.176-.293-2.099-.936-2.099-2.221 0-1.333 1.272-2.154 2.803-2.154 1.203 0 2.283.513 2.857 1.532l-1.23.854c-.362-.745-.971-.998-1.613-.998-.602 0-1.087.287-1.087.773 0 .464.389.697 1.059.868l.732.171c1.36.341 2.269.909 2.269 2.262 0 1.402-1.299 2.263-2.898 2.263Z" fill="#854DFF"/><path d="M33.281 265.109v-6.64h-6.61v-3.703h6.61v-6.594h3.782v6.594h6.624v3.703h-6.624v6.64H33.28Zm32.705 3.86c-5.172 0-8.797-3.125-10.063-8.063h-4.375l1.25-2.859h2.672a25.352 25.352 0 0 1-.016-2.438h-3.906l1.25-2.859h3.078c1.235-5.047 4.86-8.25 10.11-8.25 4.25 0 7.671 2.219 9.187 6.469l-3.812 1.281c-.907-2.516-2.766-3.984-5.375-3.984-2.72 0-4.61 1.656-5.485 4.484h5.797l-1.25 2.859h-5.156c-.063.813-.047 1.625.015 2.438h6.391l-1.25 2.859h-4.484c.906 2.703 2.781 4.297 5.422 4.297 2.609 0 4.468-1.453 5.375-3.984l3.812 1.265c-1.516 4.25-4.937 6.485-9.187 6.485Z" fill="#ADADAD"/><path d="M92.643 268.984c-5.031 0-8.672-2.75-8.906-7.609l4-.156c.484 3.281 2.61 4.25 4.812 4.25 2.703 0 4.516-1.766 4.516-4.547 0-2.906-2.094-4.594-4.531-4.594-2.047 0-3.563.875-4.266 2.234l-3.797-.437 1.797-13.141h13.734v3.625H89.659l-.828 5.829c1.203-.969 2.89-1.547 4.906-1.547 4.484 0 7.734 3.156 7.734 8.031s-3.906 8.062-8.828 8.062Zm22.016-.484v-5.188h-11.984v-3.437l11.844-14.906h4.375v14.703h4.015v3.64h-4.015v5.188h-4.235Zm-7.75-8.828h7.75v-9.781l-7.75 9.781Zm27.267 9.312c-6.375 0-9.563-4.828-9.563-12.25s3.188-12.234 9.563-12.234c6.39 0 9.578 4.812 9.578 12.234s-3.188 12.25-9.578 12.25Zm0-3.609c3.328 0 5.203-2.734 5.203-8.641 0-5.89-1.875-8.625-5.203-8.625-3.313 0-5.188 2.735-5.188 8.625 0 5.907 1.875 8.641 5.188 8.641Zm9.875 7.016 2.516-7.829h4.328l-3.125 7.829h-3.719Zm11.704-3.891v-19.969h-5.172v-3.547h9.406V268.5h-4.234Zm16.641.484c-5.515 0-8.843-2.89-8.843-7.125 0-2.984 2.046-4.906 4-5.797v-.031c-1.782-.89-3.094-2.812-3.094-5.297 0-3.64 3.031-6.218 7.937-6.218 4.907 0 7.953 2.578 7.953 6.218 0 2.485-1.328 4.407-3.125 5.297v.031c1.985.891 4.016 2.813 4.016 5.797 0 4.235-3.344 7.125-8.844 7.125Zm0-14.422c2.266 0 3.641-1.328 3.641-3.281s-1.375-3.297-3.641-3.297c-2.25 0-3.625 1.344-3.625 3.297s1.375 3.281 3.625 3.281Zm0 10.938c2.75 0 4.469-1.5 4.469-3.797 0-2.281-1.719-3.781-4.469-3.781-2.734 0-4.484 1.5-4.484 3.781 0 2.297 1.75 3.797 4.484 3.797Z" fill="#000"/><path d="m356 269.5 10-10m0 0h-10m10 0v10" stroke="#000" stroke-opacity=".3" strokeWidth="2" strokeLinecap="round" strokeLinejoin="round"/></g><defs><filter id="a" x="54.72" y=".48" width="289.56" height="202.16" filterUnits="userSpaceOnUse" color-interpolation-filters="sRGB"><feFlood flood-opacity="0" result="BackgroundImageFix"/><feColorMatrix in="SourceAlpha" values="0 0 0 0 0 0 0 0 0 0 0 0 0 0 0 0 0 0 127 0" result="hardAlpha"/><feOffset dy=".76"/><feGaussianBlur stdDeviation="1.14"/><feComposite in2="hardAlpha" operator="out"/><feColorMatrix values="0 0 0 0 0.0627451 0 0 0 0 0.0941176 0 0 0 0 0.156863 0 0 0 0.1 0"/><feBlend in2="BackgroundImageFix" result="effect1_dropShadow_4_923"/><feBlend in="SourceGraphic" in2="effect1_dropShadow_4_923" result="shape"/></filter><filter id="d" x="0" y="139.5" width="448" height="202" filterUnits="userSpaceOnUse" color-interpolation-filters="sRGB"><feFlood flood-opacity="0" result="BackgroundImageFix"/><feColorMatrix in="SourceAlpha" values="0 0 0 0 0 0 0 0 0 0 0 0 0 0 0 0 0 0 127 0" result="hardAlpha"/><feOffset dx="25" dy="15"/><feGaussianBlur stdDeviation="15"/><feComposite in2="hardAlpha" operator="out"/><feColorMatrix values="0 0 0 0 0 0 0 0 0 0 0 0 0 0 0 0 0 0 0.08 0"/><feBlend in2="BackgroundImageFix" result="effect1_dropShadow_4_923"/><feColorMatrix in="SourceAlpha" values="0 0 0 0 0 0 0 0 0 0 0 0 0 0 0 0 0 0 127 0" result="hardAlpha"/><feOffset/><feGaussianBlur stdDeviation="1"/><feComposite in2="hardAlpha" operator="out"/><feColorMatrix values="0 0 0 0 0.0627451 0 0 0 0 0.0941176 0 0 0 0 0.156863 0 0 0 0.07 0"/><feBlend in2="effect1_dropShadow_4_923" result="effect2_dropShadow_4_923"/><feBlend in="SourceGraphic" in2="effect2_dropShadow_4_923" result="shape"/></filter><linearGradient id="c" x1="251" y1="396" x2="415" y2="396" gradientUnits="userSpaceOnUse"><stop stop-color="#fff" stop-opacity="0"/><stop offset="1" stop-color="#fff"/></linearGradient><clipPath id="b"><path d="M57 14c0-6.627 5.373-12 12-12h261c6.627 0 12 5.373 12 12v173.6c0 6.627-5.373 12-12 12H69c-6.627 0-12-5.373-12-12V14Z" fill="#fff"/></clipPath></defs></svg>