<svg width="65" height="65" viewBox="0 0 65 65" fill="none" xmlns="http://www.w3.org/2000/svg">
<g clip-path="url(#clip0_4_981)">
<path d="M64.8398 32.75C64.8398 15.0769 50.513 0.75 32.8398 0.75C15.1667 0.75 0.839844 15.0769 0.839844 32.75C0.839844 50.4231 15.1667 64.75 32.8398 64.75C50.513 64.75 64.8398 50.4231 64.8398 32.75Z" fill="black"/>
<path d="M27.6396 45.0447C25.7865 42.4001 24.6963 39.1825 24.6963 35.7083C24.6963 31.2091 28.3415 27.5625 32.838 27.5625C37.3345 27.5625 40.9797 31.2091 40.9797 35.7083" stroke="#BDFF1C" strokeWidth="2" strokeLinecap="round" strokeLinejoin="round"/>
<path d="M27.6397 45.0447C25.7865 42.4 24.6963 39.1824 24.6963 35.7083C24.6963 31.2091 28.3415 27.5625 32.838 27.5625C37.3345 27.5625 40.9797 31.2091 40.9797 35.7083" stroke="#BDFF1C" strokeWidth="2" strokeLinecap="round" strokeLinejoin="round"/>
<path d="M41.421 43.832C41.2744 43.8402 41.1305 43.8538 40.9825 43.8538C36.486 43.8538 32.8408 40.2072 32.8408 35.708" stroke="#BDFF1C" strokeWidth="2" strokeLinecap="round" strokeLinejoin="round"/>
<path d="M41.4211 43.8326C41.2744 43.8407 41.1305 43.8543 40.9825 43.8543C36.4861 43.8543 32.8408 40.2077 32.8408 35.7085" stroke="#BDFF1C" strokeWidth="2" strokeLinecap="round" strokeLinejoin="round"/>
<path d="M34.5323 46.0833C31.0731 43.926 28.7692 40.0867 28.7692 35.7083C28.7692 33.4587 30.5925 31.6354 32.8407 31.6354C35.089 31.6354 36.9123 33.4587 36.9123 35.7083C36.9123 37.9579 38.7356 39.7812 40.9838 39.7812C43.232 39.7812 45.0553 37.9579 45.0553 35.7083C45.0553 28.9595 39.5868 23.4897 32.8421 23.4897C26.0974 23.4897 20.6289 28.9595 20.6289 35.7083C20.6289 37.2126 20.7972 38.6775 21.1067 40.0894" stroke="#BDFF1C" strokeWidth="2" strokeLinecap="round" strokeLinejoin="round"/>
<path d="M34.5323 46.0833C31.0731 43.926 28.7692 40.0867 28.7692 35.7083C28.7692 33.4587 30.5925 31.6354 32.8407 31.6354C35.089 31.6354 36.9123 33.4587 36.9123 35.7083C36.9123 37.9579 38.7356 39.7812 40.9838 39.7812C43.232 39.7812 45.0553 37.9579 45.0553 35.7083C45.0553 28.9595 39.5868 23.4897 32.8421 23.4897C26.0974 23.4897 20.6289 28.9595 20.6289 35.7083C20.6289 37.2126 20.7972 38.6775 21.1067 40.0894" stroke="#BDFF1C" strokeWidth="2" strokeLinecap="round" strokeLinejoin="round"/>
<path d="M44.2076 24.5673C41.4312 21.4136 37.3719 19.4165 32.8401 19.4165C28.3084 19.4165 24.2491 21.4136 21.4727 24.5673" stroke="#BDFF1C" strokeWidth="2" strokeLinecap="round" strokeLinejoin="round"/>
<path d="M44.2076 24.5673C41.4312 21.4136 37.3719 19.4165 32.8401 19.4165C28.3084 19.4165 24.2491 21.4136 21.4727 24.5673" stroke="#BDFF1C" strokeWidth="2" strokeLinecap="round" strokeLinejoin="round"/>
</g>
<defs>
<clipPath id="clip0_4_981">
<rect width="64" height="64" fill="white" transform="translate(0.839844 0.75)"/>
</clipPath>
</defs>
</svg>
