<svg width="473" height="378" fill="none" xmlns="http://www.w3.org/2000/svg"><rect x="294.175" y="66" width="177.901" height="218.901" rx="12" fill="#fff"/><path d="m347.305 100.776 3.28-5.264h1.632l-4.16 6.656V107h-1.536v-4.832l-4.16-6.656h1.664l3.28 5.264Zm11.861 2.048c0 2.592-1.6 4.352-3.888 4.352s-3.888-1.76-3.888-4.352c0-2.592 1.6-4.352 3.888-4.352s3.888 1.76 3.888 4.352Zm-6.32 0c0 1.904.96 3.12 2.432 3.12s2.432-1.216 2.432-3.12c0-1.92-.96-3.136-2.432-3.136s-2.432 1.216-2.432 3.136Zm14.791-4.192V107h-1.44v-1.152c-.48.704-1.296 1.328-2.48 1.328-1.792 0-2.8-1.232-2.8-3.008v-5.536h1.44v5.232c0 1.184.512 1.984 1.744 1.984 1.04 0 2.096-.784 2.096-2.176v-5.04h1.44Zm6.727-.032v1.456a3.292 3.292 0 0 0-.704-.064c-1.216 0-2.192.96-2.192 2.432V107h-1.44v-8.368h1.44v1.424c.368-.848 1.184-1.488 2.32-1.488.224 0 .432.016.576.032Zm7.057 8.544c-1.52 0-2.752-.896-2.752-2.4 0-1.664 1.296-2.352 3.168-2.736l2.032-.416v-.352c0-.96-.528-1.504-1.648-1.504-1.056 0-1.68.496-1.936 1.424l-1.36-.352c.4-1.36 1.632-2.336 3.344-2.336 1.872 0 3.024.912 3.024 2.704v4.08c0 .544.336.72.896.592V107c-1.28.16-2.016-.144-2.192-.944-.512.656-1.44 1.088-2.576 1.088Zm2.448-2.992v-1.44l-1.632.352c-1.28.256-2.144.608-2.144 1.616 0 .816.592 1.296 1.504 1.296 1.232 0 2.272-.752 2.272-1.824Zm2.95 1.072 1.12-.816c.448.976 1.472 1.568 2.56 1.568.976 0 1.84-.416 1.84-1.328 0-.912-.8-1.04-2.176-1.328-1.376-.304-2.816-.608-2.816-2.32 0-1.488 1.296-2.528 3.072-2.528 1.504 0 2.736.736 3.232 1.728l-1.024.816c-.432-.832-1.216-1.36-2.272-1.36-.96 0-1.6.48-1.6 1.232 0 .784.736.928 1.904 1.184 1.44.336 3.088.624 3.088 2.448 0 1.6-1.456 2.656-3.248 2.656-1.52 0-3.04-.656-3.68-1.952Zm7.781 0 1.12-.816c.448.976 1.472 1.568 2.56 1.568.976 0 1.84-.416 1.84-1.328 0-.912-.8-1.04-2.176-1.328-1.376-.304-2.816-.608-2.816-2.32 0-1.488 1.296-2.528 3.072-2.528 1.504 0 2.736.736 3.232 1.728l-1.024.816c-.432-.832-1.216-1.36-2.272-1.36-.96 0-1.6.48-1.6 1.232 0 .784.736.928 1.904 1.184 1.44.336 3.088.624 3.088 2.448 0 1.6-1.456 2.656-3.248 2.656-1.52 0-3.04-.656-3.68-1.952Zm12.054 1.952c-2.32 0-3.92-1.776-3.92-4.352 0-2.496 1.584-4.352 3.856-4.352 2.336 0 3.568 1.776 3.568 4.096v.48h-6.048c.08 1.76 1.088 2.88 2.544 2.88 1.12 0 1.92-.608 2.176-1.6l1.264.448c-.512 1.488-1.776 2.4-3.44 2.4Zm-.08-7.472c-1.216 0-2.128.816-2.384 2.24h4.512c-.032-1.184-.672-2.24-2.128-2.24Zm5.6 5.296v-5.136h-1.296v-1.232h1.296v-2.448h1.424v2.448h1.904v1.232h-1.904v4.912c0 .88.432 1.04 1.168 1.04.336 0 .576-.016.912-.096v1.232c-.368.08-.784.128-1.264.128-1.424 0-2.24-.48-2.24-2.08Zm4.286.224 1.12-.816c.448.976 1.472 1.568 2.56 1.568.976 0 1.84-.416 1.84-1.328 0-.912-.8-1.04-2.176-1.328-1.376-.304-2.816-.608-2.816-2.32 0-1.488 1.296-2.528 3.072-2.528 1.504 0 2.736.736 3.232 1.728l-1.024.816c-.432-.832-1.216-1.36-2.272-1.36-.96 0-1.6.48-1.6 1.232 0 .784.736.928 1.904 1.184 1.44.336 3.088.624 3.088 2.448 0 1.6-1.456 2.656-3.248 2.656-1.52 0-3.04-.656-3.68-1.952Z" fill="#000" fill-opacity=".3"/><circle cx="383.125" cy="195.95" r="64.95" transform="rotate(-90 383.125 195.95)" fill="#EAECF0"/><path d="M318.175 195.95a64.953 64.953 0 0 1 44.879-61.771l20.071 61.771h-64.95Z" fill="#BDFF1C"/><path d="M363.054 134.179a64.955 64.955 0 0 1 83.227 46.609 64.957 64.957 0 0 1-1.384 35.233l-61.772-20.071-20.071-61.771Z" fill="#854DFF"/><path d="M444.897 216.021a64.95 64.95 0 0 1-23.595 32.475l-38.177-52.546 61.772 20.071Z" fill="#5632A6"/><path d="M421.302 248.496a64.954 64.954 0 0 1-46.317 11.893l8.14-64.439 38.177 52.546Z" fill="#000"/><g filter="url(#a)"><rect x="6" y="17.443" width="303.402" height="309.515" rx="13.432" fill="#fff" shape-rendering="crispEdges"/><path d="m38.488 56.34 3.672-5.891h1.826l-4.656 7.45v5.409h-1.72v-5.409l-4.656-7.45h1.862l3.672 5.892Zm13.455 2.293c0 2.902-1.791 4.872-4.352 4.872-2.561 0-4.352-1.97-4.352-4.872 0-2.901 1.79-4.871 4.352-4.871 2.561 0 4.352 1.97 4.352 4.871Zm-7.074 0c0 2.132 1.074 3.493 2.722 3.493s2.722-1.361 2.722-3.493c0-2.149-1.074-3.51-2.722-3.51s-2.722 1.361-2.722 3.51Zm16.735-4.692v9.367h-1.611v-1.29c-.538.788-1.451 1.487-2.776 1.487-2.006 0-3.135-1.38-3.135-3.367V53.94h1.612v5.856c0 1.326.573 2.221 1.952 2.221 1.164 0 2.346-.877 2.346-2.435V53.94h1.612Zm7.71-.036v1.63a3.68 3.68 0 0 0-.788-.072c-1.361 0-2.454 1.075-2.454 2.723v5.122H64.46V53.94h1.612v1.594c.412-.95 1.325-1.666 2.597-1.666.25 0 .483.018.645.036Zm7.702 4.012v5.39h-1.72V50.45h4.908c2.722 0 4.46 1.271 4.46 3.725 0 2.418-1.738 3.743-4.46 3.743h-3.188Zm0-1.486h3.098c1.827 0 2.848-.806 2.848-2.257 0-1.45-1.021-2.239-2.848-2.239h-3.098v4.495Zm17.168 2.202c0 2.902-1.79 4.872-4.352 4.872-2.56 0-4.352-1.97-4.352-4.872 0-2.901 1.791-4.871 4.352-4.871 2.562 0 4.353 1.97 4.353 4.871Zm-7.074 0c0 2.132 1.075 3.493 2.722 3.493 1.648 0 2.723-1.361 2.723-3.493 0-2.149-1.075-3.51-2.723-3.51-1.647 0-2.722 1.361-2.722 3.51Zm14.157-4.728v1.63a3.685 3.685 0 0 0-.788-.072c-1.361 0-2.454 1.075-2.454 2.723v5.122h-1.612V53.94h1.612v1.594c.412-.95 1.325-1.666 2.597-1.666.251 0 .484.018.645.036Zm2.31 7.164V55.32h-1.451v-1.379h1.451v-2.74h1.594v2.74h2.131v1.38h-2.131v5.497c0 .985.483 1.164 1.307 1.164.376 0 .645-.017 1.021-.107v1.379c-.412.09-.878.143-1.415.143-1.594 0-2.507-.537-2.507-2.328Zm9.923-10.782v1.433c-.269-.036-.43-.036-.698-.036-.95 0-1.469.412-1.469 1.612v.645h2.078v1.38h-2.078v7.987h-1.612V55.32h-1.415v-1.379h1.415v-.752c0-1.827 1.003-2.937 2.919-2.937.323 0 .502.018.86.035Zm9.594 8.346c0 2.902-1.791 4.872-4.352 4.872-2.561 0-4.352-1.97-4.352-4.872 0-2.901 1.791-4.871 4.352-4.871 2.561 0 4.352 1.97 4.352 4.871Zm-7.074 0c0 2.132 1.075 3.493 2.722 3.493 1.648 0 2.723-1.361 2.723-3.493 0-2.149-1.075-3.51-2.723-3.51-1.647 0-2.722 1.361-2.722 3.51Zm10.915-8.184v12.859h-1.612v-12.86h1.612Zm2.798 1.862V50.45h1.755v1.862h-1.755Zm1.684 1.63v9.367h-1.612V53.94h1.612Zm10.929 4.692c0 2.902-1.791 4.872-4.352 4.872-2.561 0-4.352-1.97-4.352-4.872 0-2.901 1.791-4.871 4.352-4.871 2.561 0 4.352 1.97 4.352 4.871Zm-7.074 0c0 2.132 1.074 3.493 2.722 3.493s2.722-1.361 2.722-3.493c0-2.149-1.074-3.51-2.722-3.51s-2.722 1.361-2.722 3.51Z" fill="#000"/><path d="M48.763 124.219c-5.79 0-9.847-3.498-11.264-9.024h-4.897l1.4-3.201h2.99a28.369 28.369 0 0 1-.017-2.728h-4.373l1.4-3.201h3.445c1.381-5.649 5.44-9.235 11.316-9.235 4.757 0 8.587 2.484 10.284 7.241l-4.268 1.434c-1.014-2.816-3.096-4.46-6.016-4.46-3.044 0-5.16 1.854-6.14 5.02h6.49l-1.4 3.201h-5.771c-.07.909-.053 1.819.017 2.728h7.153l-1.399 3.201h-5.02c1.015 3.025 3.114 4.809 6.07 4.809 2.92 0 5.002-1.626 6.016-4.46l4.268 1.417c-1.697 4.757-5.527 7.258-10.284 7.258Z" fill="#000" fill-opacity=".3"/><path d="M69 123.695v-3.726l5.771-4.949c5.825-5.09 7.783-7.154 7.783-10.267 0-2.466-1.609-3.97-4.25-3.97-2.483 0-4.704.962-4.774 5.16l-4.548-.123c-.017-5.946 4.215-8.99 9.55-8.99 5.212 0 8.902 2.659 8.902 7.504 0 4.879-3.026 7.608-9.112 12.925l-2.834 2.448h12.418v3.988H69Zm24.539.542c-1.75 0-3.043-1.224-3.043-3.043 0-1.802 1.294-2.991 3.043-2.991 1.714 0 2.99 1.189 2.99 2.991 0 1.819-1.276 3.043-2.99 3.043Zm15.287 0c-5.632 0-9.707-3.078-9.97-8.518l4.478-.175c.542 3.673 2.921 4.758 5.387 4.758 3.025 0 5.054-1.977 5.054-5.09 0-3.253-2.343-5.142-5.072-5.142-2.291 0-3.988.98-4.775 2.501l-4.25-.489 2.012-14.71h15.373v4.058h-11.578l-.927 6.524c1.347-1.084 3.236-1.732 5.492-1.732 5.019 0 8.657 3.533 8.657 8.99 0 5.457-4.372 9.025-9.881 9.025Zm21.828 0c-5.79 0-9.847-3.096-10.11-8.588l4.443-.174c.56 3.777 2.973 4.827 5.771 4.827 2.572 0 4.723-1.382 4.723-4.215 0-2.676-2.221-4.303-5.894-4.303h-1.242v-3.603h1.207c3.375 0 5.002-1.469 5.002-3.865 0-2.256-1.574-3.568-4.005-3.568-2.729 0-4.32 1.259-4.688 4.32l-4.46-.192c.543-5.3 4.303-8.046 9.34-8.046 5.212 0 8.64 2.536 8.64 7.014 0 2.746-1.574 4.757-3.865 5.806v.035c2.763.91 4.914 3.096 4.914 6.577 0 5.054-4.39 7.975-9.776 7.975Zm16.878-.542v-22.352h-5.789v-3.97h10.529v26.322h-4.74Zm7.329 4.355 2.816-8.763h4.844l-3.498 8.763h-4.162Zm20.219-3.813c-5.632 0-9.707-3.078-9.969-8.518l4.477-.175c.542 3.673 2.921 4.758 5.387 4.758 3.026 0 5.054-1.977 5.054-5.09 0-3.253-2.343-5.142-5.072-5.142-2.291 0-3.987.98-4.774 2.501l-4.25-.489 2.011-14.71h15.374v4.058h-11.579l-.927 6.524c1.347-1.084 3.236-1.732 5.492-1.732 5.02 0 8.658 3.533 8.658 8.99 0 5.457-4.373 9.025-9.882 9.025Zm21.775 0c-5.631 0-9.706-3.078-9.969-8.518l4.478-.175c.542 3.673 2.92 4.758 5.386 4.758 3.026 0 5.055-1.977 5.055-5.09 0-3.253-2.344-5.142-5.072-5.142-2.291 0-3.988.98-4.775 2.501l-4.25-.489 2.012-14.71h15.373v4.058h-11.578l-.927 6.524c1.347-1.084 3.236-1.732 5.492-1.732 5.019 0 8.657 3.533 8.657 8.99 0 5.457-4.372 9.025-9.882 9.025Z" fill="#000"/><rect x="224.034" y="97.902" width="63.17" height="25.585" rx="12.793" fill="#5AB44E" fill-opacity=".12"/><path d="M235.2 113.288v-2.754h-2.742v-1.536h2.742v-2.736h1.568v2.736h2.748v1.536h-2.748v2.754H235.2Zm10.234 1.407v-8.283h-2.145v-1.472h3.901v9.755h-1.756Zm6.938.201c-2.087 0-3.597-1.141-3.694-3.157l1.659-.065c.201 1.361 1.083 1.763 1.996 1.763 1.122 0 1.874-.732 1.874-1.886 0-1.205-.869-1.905-1.88-1.905-.849 0-1.478.363-1.769.927l-1.575-.182.745-5.451h5.697v1.504h-4.291l-.343 2.417c.499-.401 1.199-.641 2.035-.641 1.86 0 3.208 1.309 3.208 3.331 0 2.022-1.62 3.345-3.662 3.345Zm4.113 1.413 1.043-3.248h1.796l-1.297 3.248h-1.542Zm7.625-1.413c-2.087 0-3.597-1.141-3.694-3.157l1.659-.065c.201 1.361 1.083 1.763 1.996 1.763 1.122 0 1.874-.732 1.874-1.886 0-1.205-.869-1.905-1.88-1.905-.849 0-1.478.363-1.769.927l-1.575-.182.745-5.451h5.697v1.504h-4.291l-.343 2.417c.499-.401 1.199-.641 2.035-.641 1.86 0 3.208 1.309 3.208 3.331 0 2.022-1.62 3.345-3.662 3.345Zm6.699-5.672c-1.335 0-2.32-.933-2.32-2.21 0-1.27.985-2.203 2.32-2.203 1.329 0 2.307.933 2.307 2.203 0 1.277-.978 2.21-2.307 2.21Zm0-1.03c.661 0 1.115-.493 1.115-1.18 0-.687-.454-1.166-1.115-1.166-.668 0-1.121.479-1.121 1.166 0 .687.453 1.18 1.121 1.18Zm-.771 6.501 6.138-9.755h1.367l-6.138 9.755h-1.367Zm6.773.123c-1.335 0-2.321-.933-2.321-2.217 0-1.264.986-2.197 2.321-2.197 1.328 0 2.307.933 2.307 2.197 0 1.284-.979 2.217-2.307 2.217Zm0-1.031c.661 0 1.114-.492 1.114-1.186 0-.68-.453-1.16-1.114-1.16-.668 0-1.122.48-1.122 1.16 0 .694.454 1.186 1.122 1.186Z" fill="#5AB44E"/><path d="m271.41 59.228 11.193-11.194m0 0H271.41m11.193 0v11.194" stroke="#000" stroke-opacity=".3" strokeWidth="2.239" strokeLinecap="round" strokeLinejoin="round"/><g clip-path="url(#b)" stroke="#F2F4F7" strokeWidth=".948" strokeLinecap="round"><path d="M34.287 164.037h247.211M34.287 188.024h247.211M34.287 209.642h247.211M34.287 231.259h247.211M34.287 252.877h247.211M34.287 274.494h247.211"/></g><path d="m42.346 295.966 2.848-2.364c1.316-1.088 2.337-2.014 2.337-3.277 0-1.182-.765-1.988-1.947-1.988-1.156 0-1.948.886-1.948 1.988 0 .349.08.712.215 1.048h-1.209c-.148-.417-.215-.739-.215-1.115 0-1.72 1.41-3.022 3.184-3.022 1.947 0 3.183 1.235 3.183 3.008 0 1.639-1.128 2.767-2.512 3.882l-2.176 1.773h4.876v1.129h-6.636v-1.062Zm7.479-3.761c0-2.941 1.383-4.969 3.68-4.969 2.284 0 3.667 2.028 3.667 4.969 0 2.942-1.383 4.97-3.667 4.97-2.297 0-3.68-2.028-3.68-4.97Zm1.29 0c0 2.257.819 3.842 2.39 3.842 1.558 0 2.391-1.585 2.391-3.842 0-2.256-.833-3.841-2.39-3.841-1.572 0-2.392 1.585-2.392 3.841Zm6.946 3.761 2.848-2.364c1.316-1.088 2.337-2.014 2.337-3.277 0-1.182-.766-1.988-1.948-1.988-1.155 0-1.947.886-1.947 1.988 0 .349.08.712.215 1.048h-1.21c-.147-.417-.214-.739-.214-1.115 0-1.72 1.41-3.022 3.183-3.022 1.948 0 3.184 1.235 3.184 3.008 0 1.639-1.129 2.767-2.512 3.882l-2.176 1.773h4.876v1.129H58.06v-1.062Zm7.478-3.761c0-2.941 1.384-4.969 3.68-4.969 2.284 0 3.668 2.028 3.668 4.969 0 2.942-1.384 4.97-3.667 4.97-2.297 0-3.68-2.028-3.68-4.97Zm1.29 0c0 2.257.82 3.842 2.39 3.842 1.559 0 2.392-1.585 2.392-3.842 0-2.256-.833-3.841-2.391-3.841-1.572 0-2.391 1.585-2.391 3.841Zm44.421 3.761 2.847-2.364c1.317-1.088 2.337-2.015 2.337-3.277 0-1.182-.765-1.988-1.947-1.988-1.155 0-1.948.886-1.948 1.988 0 .349.081.712.215 1.047h-1.209c-.148-.416-.215-.738-.215-1.114 0-1.72 1.411-3.023 3.184-3.023 1.947 0 3.183 1.236 3.183 3.009 0 1.639-1.128 2.767-2.512 3.882l-2.176 1.773h4.876v1.128h-6.635v-1.061Zm7.478-3.761c0-2.941 1.383-4.97 3.68-4.97 2.284 0 3.667 2.029 3.667 4.97 0 2.942-1.383 4.97-3.667 4.97-2.297 0-3.68-2.028-3.68-4.97Zm1.289 0c0 2.257.82 3.842 2.391 3.842 1.558 0 2.391-1.585 2.391-3.842 0-2.256-.833-3.841-2.391-3.841-1.571 0-2.391 1.585-2.391 3.841Zm6.947 3.761 2.848-2.364c1.316-1.088 2.337-2.015 2.337-3.277 0-1.182-.766-1.988-1.948-1.988-1.155 0-1.947.886-1.947 1.988 0 .349.08.712.215 1.047h-1.209c-.148-.416-.215-.738-.215-1.114 0-1.72 1.41-3.023 3.183-3.023 1.948 0 3.184 1.236 3.184 3.009 0 1.639-1.129 2.767-2.512 3.882l-2.176 1.773h4.876v1.128h-6.636v-1.061Zm10.002-8.637h.967v9.698h-1.29v-7.092h-2.323v-.954l1.034-.067c1.142-.08 1.518-.47 1.612-1.585Zm39.494 8.637 2.847-2.364c1.317-1.088 2.338-2.015 2.338-3.277 0-1.182-.766-1.988-1.948-1.988-1.155 0-1.948.886-1.948 1.988 0 .349.081.712.215 1.047h-1.209c-.147-.416-.215-.738-.215-1.114 0-1.72 1.411-3.023 3.184-3.023 1.947 0 3.183 1.236 3.183 3.009 0 1.639-1.128 2.767-2.512 3.882l-2.176 1.773h4.876v1.128h-6.635v-1.061Zm7.478-3.761c0-2.941 1.383-4.97 3.68-4.97 2.284 0 3.667 2.029 3.667 4.97 0 2.942-1.383 4.97-3.667 4.97-2.297 0-3.68-2.028-3.68-4.97Zm1.289 0c0 2.257.82 3.842 2.391 3.842 1.559 0 2.391-1.585 2.391-3.842 0-2.256-.832-3.841-2.391-3.841-1.571 0-2.391 1.585-2.391 3.841Zm6.947 3.761 2.848-2.364c1.316-1.088 2.337-2.015 2.337-3.277 0-1.182-.765-1.988-1.947-1.988-1.156 0-1.948.886-1.948 1.988 0 .349.08.712.215 1.047h-1.209c-.148-.416-.215-.738-.215-1.114 0-1.72 1.41-3.023 3.183-3.023 1.948 0 3.184 1.236 3.184 3.009 0 1.639-1.128 2.767-2.512 3.882l-2.176 1.773h4.876v1.128h-6.636v-1.061Zm7.504 0 2.847-2.364c1.317-1.088 2.337-2.015 2.337-3.277 0-1.182-.765-1.988-1.947-1.988-1.155 0-1.948.886-1.948 1.988 0 .349.081.712.215 1.047h-1.209c-.148-.416-.215-.738-.215-1.114 0-1.72 1.411-3.023 3.184-3.023 1.947 0 3.183 1.236 3.183 3.009 0 1.639-1.128 2.767-2.512 3.882l-2.176 1.773h4.876v1.128h-6.635v-1.061Zm44.393 0 2.847-2.364c1.317-1.088 2.337-2.015 2.337-3.277 0-1.182-.765-1.988-1.947-1.988-1.155 0-1.948.886-1.948 1.988 0 .349.081.712.215 1.047h-1.209c-.148-.416-.215-.738-.215-1.114 0-1.72 1.411-3.023 3.184-3.023 1.947 0 3.183 1.236 3.183 3.009 0 1.639-1.128 2.767-2.512 3.882l-2.176 1.773h4.876v1.128h-6.635v-1.061Zm7.478-3.761c0-2.941 1.383-4.97 3.68-4.97 2.284 0 3.667 2.029 3.667 4.97 0 2.942-1.383 4.97-3.667 4.97-2.297 0-3.68-2.028-3.68-4.97Zm1.289 0c0 2.257.82 3.842 2.391 3.842 1.558 0 2.391-1.585 2.391-3.842 0-2.256-.833-3.841-2.391-3.841-1.571 0-2.391 1.585-2.391 3.841Zm6.947 3.761 2.848-2.364c1.316-1.088 2.337-2.015 2.337-3.277 0-1.182-.766-1.988-1.948-1.988-1.155 0-1.947.886-1.947 1.988 0 .349.08.712.215 1.047h-1.209c-.148-.416-.215-.738-.215-1.114 0-1.72 1.41-3.023 3.183-3.023 1.948 0 3.184 1.236 3.184 3.009 0 1.639-1.129 2.767-2.512 3.882l-2.176 1.773h4.876v1.128h-6.636v-1.061Zm10.85 1.209c-1.84 0-3.304-1.007-3.613-2.928l1.249-.269c.188 1.343 1.142 2.123 2.351 2.123 1.222 0 2.069-.699 2.069-1.841 0-1.141-.927-1.706-2.15-1.706h-1.034v-1.088h1.048c1.115 0 1.867-.564 1.867-1.531 0-.994-.685-1.612-1.787-1.612-1.155 0-1.961.766-2.176 1.975l-1.155-.229c.255-1.611 1.505-2.834 3.358-2.834 1.881 0 2.969 1.102 2.969 2.633 0 1.048-.672 1.854-1.491 2.122.967.269 1.8 1.008 1.8 2.337 0 1.585-1.303 2.848-3.305 2.848Z" fill="#000" fill-opacity=".3"/><g clip-path="url(#c)"><g clip-path="url(#d)"><mask id="f" style="mask-type:alpha" maskUnits="userSpaceOnUse" x="33" y="177" width="271" height="152"><path transform="translate(33.813 177.785)" fill="url(#e)" d="M0 0h269.269v150.753H0z"/></mask><g mask="url(#f)"><path opacity=".1" d="M637.094 186.938c8.872 0 8.872-11.499 17.743-11.499v142.669H33.812v-69.157c9.611 0 8.872 4.23 17.744 4.23s8.872-12.012 17.744-12.012c8.871 0 7.393 3.696 17.743 3.696 10.35 0 7.393 6.92 17.744 6.92 10.35 0 8.132-2.629 17.743-2.629 9.611 0 7.763-12.525 17.744-12.525s7.393 4.086 17.743 4.086c10.351 0 8.503 5.626 17.744 5.626s7.763-18.686 17.744-18.686c9.98 0 8.871 6.468 17.743 6.468 8.872 0 7.393-9.055 17.744-9.055 10.35 0 8.132 5.791 17.743 5.791 9.611 0 8.133-23.676 17.744-23.676s7.763 6.591 17.743 6.591c9.981 0 7.394 4.353 17.744 4.353s7.763-11.293 17.744-11.293c9.98 0 7.393 5.544 17.743 5.544 10.351 0 8.502-9.138 17.744-9.138 9.241 0 8.132-15.277 17.743-15.277 9.611 0 8.133 25.565 17.744 25.565s8.502-17.906 17.743-17.906c9.242 0 7.394 7.844 17.744 7.844s8.132 7.043 17.744 7.043c9.611 0 8.502-11.663 17.743-11.663 9.242 0 8.502 11.088 17.744 11.088 9.241 0 8.132-4.928 17.743-4.928 9.611 0 8.133-10.164 17.744-10.164s8.132 4.066 17.743 4.066c9.612 0 8.872-14.846 17.744-14.846s7.393 20.349 17.744 20.349c10.35 0 7.762-13.82 17.743-13.82 9.981 0 8.502 5.688 17.744 5.688 9.241 0 8.502-14.168 17.743-14.168 9.242 0 8.872 4.825 17.744 4.825Z" fill="#7F56D9"/></g><path d="M654.837 175.889c-8.871 0-8.871 11.5-17.743 11.5-8.872 0-8.502-4.826-17.744-4.826-9.241 0-8.502 14.169-17.743 14.169-9.242 0-7.763-5.688-17.744-5.688s-7.393 13.82-17.743 13.82c-10.351 0-8.872-20.35-17.744-20.35s-8.132 14.847-17.744 14.847c-9.611 0-8.132-4.066-17.743-4.066-9.611 0-8.133 10.165-17.744 10.165s-8.502 4.928-17.743 4.928c-9.242 0-8.502-11.089-17.744-11.089-9.241 0-8.132 11.664-17.743 11.664-9.612 0-7.394-7.043-17.744-7.043s-8.502-7.845-17.744-7.845c-9.241 0-8.132 17.907-17.743 17.907-9.611 0-8.133-25.566-17.744-25.566s-8.502 15.278-17.743 15.278c-9.242 0-7.393 9.138-17.744 9.138-10.35 0-7.763-5.544-17.743-5.544-9.981 0-7.394 11.294-17.744 11.294s-7.763-4.354-17.744-4.354c-9.98 0-8.132-6.591-17.743-6.591-9.611 0-8.133 23.677-17.744 23.677s-7.393-5.791-17.743-5.791c-10.351 0-8.872 9.056-17.744 9.056s-7.763-6.469-17.743-6.469c-9.981 0-8.503 18.687-17.744 18.687s-7.393-5.626-17.744-5.626c-10.35 0-7.762-4.087-17.743-4.087-9.981 0-8.133 12.527-17.744 12.527s-7.393 2.628-17.743 2.628c-10.35 0-7.393-6.92-17.744-6.92-10.35 0-8.872-3.696-17.743-3.696-8.872 0-8.872 12.013-17.744 12.013s-8.133-4.231-17.744-4.231" stroke="#854DFF" strokeWidth="1.896" strokeLinecap="round" strokeLinejoin="round"/></g></g></g><defs><clipPath id="b"><path fill="#fff" transform="translate(33.813 154.082)" d="M0 0h248.16v128.946H0z"/></clipPath><clipPath id="c"><path fill="#fff" transform="translate(32.864 173.992)" d="M0 0h249.108v101.45H0z"/></clipPath><clipPath id="d"><path fill="#fff" transform="translate(33.813 175.889)" d="M0 0h621.025v99.554H0z"/></clipPath><linearGradient id="e" x1="134.634" y1="0" x2="134.634" y2="150.753" gradientUnits="userSpaceOnUse"><stop/><stop offset="1" stop-opacity="0"/></linearGradient><filter id="a" x=".403" y=".653" width="370.563" height="376.676" filterUnits="userSpaceOnUse" color-interpolation-filters="sRGB"><feFlood flood-opacity="0" result="BackgroundImageFix"/><feColorMatrix in="SourceAlpha" values="0 0 0 0 0 0 0 0 0 0 0 0 0 0 0 0 0 0 127 0" result="hardAlpha"/><feOffset dx="27.984" dy="16.79"/><feGaussianBlur stdDeviation="16.79"/><feComposite in2="hardAlpha" operator="out"/><feColorMatrix values="0 0 0 0 0 0 0 0 0 0 0 0 0 0 0 0 0 0 0.08 0"/><feBlend in2="BackgroundImageFix" result="effect1_dropShadow_4_922"/><feBlend in="SourceGraphic" in2="effect1_dropShadow_4_922" result="shape"/></filter></defs></svg>