<svg width="50" height="50" viewBox="0 0 50 50" fill="none" xmlns="http://www.w3.org/2000/svg">
<g filter="url(#filter0_d_417_1153)">
<g clip-path="url(#clip0_417_1153)">
<path d="M45.6581 17.9226L39.2248 43.281C39.0748 43.8646 38.5581 44.2814 37.9748 44.2814L13.1915 44.3147C12.6581 44.3147 12.3581 44.9483 12.6748 45.3817L15.6248 49.4664C15.8748 49.7999 16.2581 49.9999 16.6581 49.9999L29.4081 49.9833C37.4748 49.9666 44.5081 44.3481 46.5581 36.262L49.9415 22.8909C50.0415 22.4908 49.9581 22.074 49.7248 21.7572L46.7748 17.6892C46.4581 17.2557 45.7915 17.3891 45.6581 17.9226Z" fill="url(#paint0_linear_417_1153)"/>
<path d="M25.4249 38.7462C31.0416 38.7462 35.9416 34.8116 37.3749 29.1931L40.4916 16.9056L41.8249 11.6706C41.9249 11.2704 41.8416 10.8536 41.6083 10.5368L37.8583 5.36846L34.3583 0.533511C34.1083 0.200067 33.7249 0 33.3249 0L20.5749 0.0166722C12.5083 0.0166722 5.45828 5.65188 3.42494 13.7212L0.0416117 27.0924C-0.0583883 27.4925 0.0249451 27.9093 0.258278 28.2261L4.00828 33.3945L7.50828 38.2294C7.75828 38.5629 8.14161 38.7629 8.54161 38.7629H13.6249L25.4249 38.7462ZM29.8416 33.061L16.0916 33.0777C15.5583 33.0777 15.1749 32.5609 15.3083 32.0273L18.8749 17.9226C19.0249 17.3391 19.5416 16.9223 20.1249 16.9223L33.8749 16.9056C34.4083 16.9056 34.7916 17.4225 34.6583 17.956L31.0916 32.0607C30.9416 32.6442 30.4249 33.061 29.8416 33.061ZM4.34161 32.044L10.7583 6.70223C10.9083 6.11871 11.4249 5.7019 12.0083 5.7019L36.7416 5.66856C37.2749 5.66856 37.6583 6.18539 37.5249 6.71891L36.5749 10.4702C36.4583 10.9036 36.0749 11.2204 35.6416 11.2204H28.7249C20.6749 11.2371 13.6249 16.8556 11.5749 24.9416L9.69161 32.3441C9.57494 32.7776 9.19161 33.0944 8.75828 33.0944H5.12494C4.59161 33.0944 4.20828 32.5775 4.34161 32.044Z" fill="url(#paint1_linear_417_1153)"/>
</g>
</g>
<defs>
<filter id="filter0_d_417_1153" x="-2" y="-1" width="54" height="54" filterUnits="userSpaceOnUse" color-interpolation-filters="sRGB">
<feFlood flood-opacity="0" result="BackgroundImageFix"/>
<feColorMatrix in="SourceAlpha" type="matrix" values="0 0 0 0 0 0 0 0 0 0 0 0 0 0 0 0 0 0 127 0" result="hardAlpha"/>
<feOffset dy="1"/>
<feGaussianBlur stdDeviation="1"/>
<feColorMatrix type="matrix" values="0 0 0 0 0.0627451 0 0 0 0 0.0941176 0 0 0 0 0.156863 0 0 0 0.06 0"/>
<feBlend mode="normal" in2="BackgroundImageFix" result="effect1_dropShadow_417_1153"/>
<feBlend mode="normal" in="SourceGraphic" in2="effect1_dropShadow_417_1153" result="shape"/>
</filter>
<linearGradient id="paint0_linear_417_1153" x1="31.2642" y1="17.4304" x2="31.2642" y2="49.9999" gradientUnits="userSpaceOnUse">
<stop stop-color="#854DFF"/>
<stop offset="1" stop-color="#652FDA"/>
</linearGradient>
<linearGradient id="paint1_linear_417_1153" x1="20.9333" y1="0" x2="20.9333" y2="38.7629" gradientUnits="userSpaceOnUse">
<stop stop-color="#854DFF"/>
<stop offset="1" stop-color="#652FDA"/>
</linearGradient>
<clipPath id="clip0_417_1153">
<rect width="50" height="50" fill="white"/>
</clipPath>
</defs>
</svg>
