<svg width="347" height="287" fill="none" xmlns="http://www.w3.org/2000/svg"><g filter="url(#a)"><path d="M9 28.712C9 20.587 15.587 14 23.712 14h267.576C299.413 14 306 20.587 306 28.712V141H9V28.712Z" fill="#F9F9F9" shape-rendering="crispEdges"/><path d="M33.643 46.64v4.428H32.23V40.505h4.032c2.236 0 3.663 1.044 3.663 3.06 0 1.986-1.427 3.075-3.663 3.075h-2.62Zm0-1.221h2.545c1.5 0 2.34-.662 2.34-1.854 0-1.192-.84-1.84-2.34-1.84h-2.545v3.694Zm14.103 1.81c0 2.383-1.471 4-3.575 4s-3.575-1.617-3.575-4c0-2.384 1.471-4.002 3.575-4.002s3.575 1.618 3.575 4.001Zm-5.811 0c0 1.75.883 2.868 2.236 2.868 1.354 0 2.236-1.118 2.236-2.869 0-1.765-.882-2.883-2.236-2.883-1.353 0-2.236 1.118-2.236 2.883Zm11.63-3.885v1.34a3.022 3.022 0 0 0-.648-.06c-1.118 0-2.016.883-2.016 2.236v4.208h-1.324v-7.694h1.324v1.31c.339-.78 1.089-1.37 2.133-1.37.206 0 .398.016.53.03Zm1.897 5.885v-4.722H54.27v-1.133h1.192v-2.251h1.309v2.25h1.75v1.134h-1.75v4.516c0 .81.397.956 1.074.956.309 0 .53-.014.839-.088v1.133a5.482 5.482 0 0 1-1.163.118c-1.309 0-2.06-.442-2.06-1.913Zm8.151-8.857v1.177c-.22-.029-.353-.029-.574-.029-.78 0-1.206.338-1.206 1.324v.53h1.707v1.133h-1.707v6.561H60.51v-6.561h-1.162v-1.133h1.162v-.618c0-1.5.824-2.413 2.398-2.413.265 0 .412.015.706.03Zm7.882 6.856c0 2.384-1.472 4.002-3.575 4.002-2.104 0-3.575-1.618-3.575-4.002 0-2.383 1.47-4.001 3.575-4.001 2.103 0 3.575 1.618 3.575 4.001Zm-5.812 0c0 1.751.883 2.87 2.237 2.87 1.353 0 2.236-1.119 2.236-2.87 0-1.765-.883-2.883-2.236-2.883-1.354 0-2.237 1.118-2.237 2.883Zm8.967-6.723v10.563h-1.324V40.505h1.324Zm2.298 1.53v-1.53h1.442v1.53h-1.442Zm1.383 1.339v7.694h-1.324v-7.694h1.324Zm8.978 3.854c0 2.384-1.471 4.002-3.575 4.002s-3.575-1.618-3.575-4.002c0-2.383 1.471-4.001 3.575-4.001s3.575 1.618 3.575 4.001Zm-5.811 0c0 1.751.882 2.87 2.236 2.87s2.236-1.119 2.236-2.87c0-1.765-.882-2.883-2.236-2.883-1.353 0-2.236 1.118-2.236 2.883Zm14.6 4.002c-1.074 0-1.927-.515-2.383-1.28v1.118H92.39V40.505h1.325v3.987c.456-.75 1.309-1.265 2.383-1.265 2.133 0 3.354 1.81 3.354 4.001 0 2.178-1.22 4.002-3.354 4.002Zm-2.413-4.267v.545c0 1.765 1.089 2.56 2.177 2.56 1.442 0 2.252-1.192 2.252-2.84 0-1.662-.81-2.84-2.252-2.84-1.088 0-2.177.78-2.177 2.575ZM103.2 51.2c-1.397 0-2.53-.823-2.53-2.206 0-1.53 1.191-2.163 2.913-2.516l1.868-.383v-.323c0-.883-.485-1.383-1.515-1.383-.971 0-1.545.456-1.78 1.31l-1.251-.325c.368-1.25 1.501-2.147 3.075-2.147 1.721 0 2.78.838 2.78 2.486v3.752c0 .5.309.661.824.544v1.06c-1.177.146-1.853-.133-2.015-.869-.471.603-1.324 1-2.369 1Zm2.251-2.75v-1.325l-1.501.324c-1.176.235-1.971.559-1.971 1.486 0 .75.544 1.191 1.383 1.191 1.133 0 2.089-.69 2.089-1.677Zm5.037-7.945v10.563h-1.324V40.505h1.324Zm4.285 10.695c-1.398 0-2.531-.823-2.531-2.206 0-1.53 1.192-2.163 2.913-2.516l1.869-.383v-.323c0-.883-.486-1.383-1.516-1.383-.971 0-1.544.456-1.78 1.31l-1.25-.325c.367-1.25 1.5-2.147 3.074-2.147 1.722 0 2.781.838 2.781 2.486v3.752c0 .5.309.661.824.544v1.06c-1.177.146-1.854-.133-2.016-.869-.47.603-1.324 1-2.368 1Zm2.251-2.75v-1.325l-1.501.324c-1.177.235-1.971.559-1.971 1.486 0 .75.544 1.191 1.383 1.191 1.132 0 2.089-.69 2.089-1.677Zm3.712 2.618v-7.694h1.325v1.044a2.738 2.738 0 0 1 2.295-1.191c1.633 0 2.56 1.132 2.56 2.765v5.076h-1.325v-4.722c0-1.074-.456-1.884-1.603-1.884-.956 0-1.927.736-1.927 2.016v4.59h-1.325Zm9.246-3.84c0 1.751.942 2.84 2.31 2.84 1.059 0 1.692-.677 1.913-1.633l1.177.544c-.368 1.28-1.486 2.25-3.09 2.25-2.148 0-3.634-1.632-3.634-4 0-2.384 1.486-4.002 3.634-4.002 1.604 0 2.692.926 3.06 2.206l-1.147.574c-.221-.941-.854-1.633-1.913-1.633-1.368 0-2.31 1.089-2.31 2.854Zm10.071 4.002c-2.133 0-3.604-1.633-3.604-4.002 0-2.295 1.456-4.001 3.545-4.001 2.148 0 3.281 1.633 3.281 3.766v.441h-5.561c.074 1.619 1 2.648 2.339 2.648 1.03 0 1.766-.559 2.001-1.47l1.162.411c-.47 1.368-1.633 2.207-3.163 2.207Zm-.073-6.87c-1.118 0-1.957.75-2.192 2.06h4.148c-.029-1.09-.618-2.06-1.956-2.06Z" fill="#000"/><g clip-path="url(#b)" fill="#000" fill-opacity=".3"><path d="M231.594 50.068h-1.208l-3.263-8.582h1.231l2.654 7.148 2.654-7.148h1.171l-3.239 8.582Zm4.218-7.34v-1.242h1.171v1.243h-1.171Zm1.124 1.088v6.252h-1.076v-6.252h1.076Zm4.294 6.384c-1.734 0-2.929-1.327-2.929-3.252 0-1.864 1.183-3.251 2.881-3.251 1.745 0 2.665 1.327 2.665 3.06v.359h-4.518c.06 1.315.813 2.151 1.901 2.151.836 0 1.434-.454 1.625-1.195l.945.335c-.383 1.111-1.327 1.793-2.57 1.793Zm-.06-5.583c-.909 0-1.59.61-1.781 1.674h3.371c-.024-.885-.502-1.674-1.59-1.674Zm6.935-.8h.908l1.291 4.661 1.303-4.662h1.076l-1.901 6.252h-.944l-1.303-4.638-1.303 4.638h-.944l-1.901-6.252h1.112l1.315 4.65 1.291-4.65Zm9.224 2.51v3.741h-1.076v-6.252h1.076v.85a2.098 2.098 0 0 1 1.805-.97c.837 0 1.422.42 1.733 1.065a2.388 2.388 0 0 1 1.996-1.064c1.291 0 2.068.92 2.068 2.247v4.124h-1.075v-3.837c0-.873-.359-1.53-1.244-1.53-.717 0-1.482.61-1.482 1.626v3.741h-1.076v-3.837c0-.873-.358-1.53-1.243-1.53-.717 0-1.482.61-1.482 1.626Zm14.716.621c0 1.937-1.195 3.252-2.905 3.252-1.709 0-2.905-1.315-2.905-3.252 0-1.936 1.196-3.251 2.905-3.251 1.71 0 2.905 1.315 2.905 3.251Zm-4.722 0c0 1.423.717 2.331 1.817 2.331s1.817-.908 1.817-2.33c0-1.435-.717-2.344-1.817-2.344s-1.817.909-1.817 2.343Zm9.329-3.156v1.088a2.45 2.45 0 0 0-.526-.048c-.908 0-1.637.718-1.637 1.817v3.42h-1.076v-6.253h1.076v1.064c.275-.633.884-1.111 1.733-1.111.167 0 .323.012.43.023Zm3.427 6.408c-1.734 0-2.929-1.327-2.929-3.252 0-1.864 1.183-3.251 2.881-3.251 1.745 0 2.666 1.327 2.666 3.06v.359h-4.519c.06 1.315.813 2.151 1.901 2.151.836 0 1.434-.454 1.625-1.195l.945.335c-.383 1.111-1.327 1.793-2.57 1.793Zm-.06-5.583c-.909 0-1.59.61-1.781 1.674h3.371c-.024-.885-.502-1.674-1.59-1.674Zm-53.087 7.256h56.207v.897h-56.207v-.897Z"/></g><path d="M44.128 92.694c-4.756 0-8.089-2.873-9.253-7.413h-4.022l1.149-2.63h2.457a23.336 23.336 0 0 1-.015-2.24h-3.591l1.149-2.63h2.83c1.135-4.64 4.469-7.586 9.296-7.586 3.908 0 7.054 2.04 8.448 5.948l-3.506 1.178c-.833-2.313-2.543-3.663-4.942-3.663-2.5 0-4.238 1.522-5.043 4.123h5.33l-1.15 2.63h-4.74c-.058.746-.043 1.493.014 2.24h5.876l-1.15 2.63h-4.123c.834 2.485 2.558 3.95 4.986 3.95 2.4 0 4.109-1.335 4.942-3.663l3.506 1.164c-1.394 3.908-4.54 5.962-8.448 5.962Z" fill="#000" fill-opacity=".3"/><path d="M60.752 92.263v-3.06l4.741-4.066c4.785-4.18 6.394-5.876 6.394-8.434 0-2.025-1.322-3.261-3.492-3.261-2.04 0-3.864.79-3.922 4.238l-3.735-.1c-.015-4.885 3.462-7.385 7.844-7.385 4.282 0 7.313 2.184 7.313 6.164 0 4.008-2.485 6.25-7.485 10.617l-2.328 2.011h10.201v3.276H60.752Zm20.158.445c-1.437 0-2.5-1.005-2.5-2.5 0-1.48 1.063-2.456 2.5-2.456 1.408 0 2.457.977 2.457 2.457 0 1.494-1.05 2.5-2.457 2.5Zm12.557 0c-4.626 0-7.973-2.528-8.189-6.996l3.678-.144c.445 3.017 2.4 3.908 4.425 3.908 2.486 0 4.152-1.624 4.152-4.181 0-2.672-1.925-4.224-4.166-4.224-1.882 0-3.276.805-3.922 2.055l-3.492-.403 1.653-12.083h12.628v3.334h-9.51l-.762 5.359c1.106-.891 2.658-1.423 4.511-1.423 4.124 0 7.112 2.902 7.112 7.385s-3.592 7.413-8.118 7.413Zm17.931 0c-4.755 0-8.088-2.543-8.304-7.054l3.649-.144c.46 3.104 2.443 3.966 4.742 3.966 2.112 0 3.879-1.135 3.879-3.463 0-2.198-1.825-3.534-4.842-3.534h-1.02v-2.96h.991c2.773 0 4.109-1.207 4.109-3.175 0-1.853-1.293-2.93-3.29-2.93-2.241 0-3.549 1.034-3.85 3.548l-3.664-.158c.445-4.353 3.534-6.609 7.672-6.609 4.282 0 7.098 2.083 7.098 5.761 0 2.256-1.293 3.908-3.176 4.77v.029c2.27.747 4.038 2.543 4.038 5.402 0 4.152-3.607 6.552-8.032 6.552Zm18.994 0c-5.861 0-8.792-4.439-8.792-11.263 0-6.825 2.931-11.25 8.792-11.25 5.877 0 8.808 4.425 8.808 11.25 0 6.824-2.931 11.264-8.808 11.264Zm0-3.318c3.061 0 4.785-2.515 4.785-7.945 0-5.417-1.724-7.931-4.785-7.931-3.045 0-4.77 2.514-4.77 7.93 0 5.431 1.725 7.946 4.77 7.946Zm9.081 6.45 2.313-7.197h3.98l-2.873 7.198h-3.42Zm10.762-3.577V73.902h-4.756V70.64h8.649v21.623h-3.893Zm16.063.445c-5.862 0-8.793-4.439-8.793-11.263 0-6.825 2.931-11.25 8.793-11.25 5.876 0 8.807 4.425 8.807 11.25 0 6.824-2.931 11.264-8.807 11.264Zm0-3.318c3.06 0 4.784-2.515 4.784-7.945 0-5.417-1.724-7.931-4.784-7.931-3.046 0-4.77 2.514-4.77 7.93 0 5.431 1.724 7.946 4.77 7.946Z" fill="#000"/></g><rect y="112.5" width="322.667" height="59" rx="12" fill="url(#c)"/><path d="m101.4 146.836 1.35-1.08c.81 1.548 2.268 2.448 3.942 2.448 1.674 0 2.97-.828 2.97-2.304 0-1.566-1.494-1.836-3.456-2.304-2.034-.486-4.05-1.044-4.05-3.474 0-2.268 1.962-3.744 4.41-3.744 2.25 0 3.87 1.08 4.644 2.538l-1.314 1.044c-.666-1.242-1.692-2.088-3.366-2.088-1.566 0-2.7.864-2.7 2.106 0 1.368 1.206 1.656 3.024 2.088 2.142.504 4.5.954 4.5 3.69 0 2.412-2.142 3.942-4.698 3.942-2.232 0-4.374-1.116-5.256-2.862Zm15.746 2.862c-2.61 0-4.41-1.998-4.41-4.896 0-2.808 1.782-4.896 4.338-4.896 2.628 0 4.014 1.998 4.014 4.608v.54h-6.804c.09 1.98 1.224 3.24 2.862 3.24 1.26 0 2.16-.684 2.448-1.8l1.422.504c-.576 1.674-1.998 2.7-3.87 2.7Zm-.09-8.406c-1.368 0-2.394.918-2.682 2.52h5.076c-.036-1.332-.756-2.52-2.394-2.52Zm7.668-4.716V149.5h-1.62v-12.924h1.62Zm4.324 0V149.5h-1.62v-12.924h1.62Zm5.458 10.926 1.26-.918c.504 1.098 1.656 1.764 2.88 1.764 1.098 0 2.07-.468 2.07-1.494s-.9-1.17-2.448-1.494c-1.548-.342-3.168-.684-3.168-2.61 0-1.674 1.458-2.844 3.456-2.844 1.692 0 3.078.828 3.636 1.944l-1.152.918c-.486-.936-1.368-1.53-2.556-1.53-1.08 0-1.8.54-1.8 1.386 0 .882.828 1.044 2.142 1.332 1.62.378 3.474.702 3.474 2.754 0 1.8-1.638 2.988-3.654 2.988-1.71 0-3.42-.738-4.14-2.196Zm9.797 1.998v-12.924h1.62v4.788a3.35 3.35 0 0 1 2.808-1.458c1.998 0 3.132 1.386 3.132 3.384v6.21h-1.62v-5.778c0-1.314-.558-2.304-1.962-2.304-1.17 0-2.358.9-2.358 2.466v5.616h-1.62Zm12.519.162c-1.71 0-3.096-1.008-3.096-2.7 0-1.872 1.458-2.646 3.564-3.078l2.286-.468v-.396c0-1.08-.594-1.692-1.854-1.692-1.188 0-1.89.558-2.178 1.602l-1.53-.396c.45-1.53 1.836-2.628 3.762-2.628 2.106 0 3.402 1.026 3.402 3.042v4.59c0 .612.378.81 1.008.666v1.296c-1.44.18-2.268-.162-2.466-1.062-.576.738-1.62 1.224-2.898 1.224Zm2.754-3.366v-1.62l-1.836.396c-1.44.288-2.412.684-2.412 1.818 0 .918.666 1.458 1.692 1.458 1.386 0 2.556-.846 2.556-2.052Zm9.24-6.246v1.638a3.704 3.704 0 0 0-.792-.072c-1.368 0-2.466 1.08-2.466 2.736v5.148h-1.62v-9.414h1.62v1.602c.414-.954 1.332-1.674 2.61-1.674.252 0 .486.018.648.036Zm5.16 9.648c-2.61 0-4.41-1.998-4.41-4.896 0-2.808 1.782-4.896 4.338-4.896 2.628 0 4.014 1.998 4.014 4.608v.54h-6.804c.09 1.98 1.224 3.24 2.862 3.24 1.26 0 2.16-.684 2.448-1.8l1.422.504c-.576 1.674-1.998 2.7-3.87 2.7Zm-.09-8.406c-1.368 0-2.394.918-2.682 2.52h5.076c-.036-1.332-.756-2.52-2.394-2.52Zm5.004 6.21 1.26-.918c.504 1.098 1.656 1.764 2.88 1.764 1.098 0 2.07-.468 2.07-1.494s-.9-1.17-2.448-1.494c-1.548-.342-3.168-.684-3.168-2.61 0-1.674 1.458-2.844 3.456-2.844 1.692 0 3.078.828 3.636 1.944l-1.152.918c-.486-.936-1.368-1.53-2.556-1.53-1.08 0-1.8.54-1.8 1.386 0 .882.828 1.044 2.142 1.332 1.62.378 3.474.702 3.474 2.754 0 1.8-1.638 2.988-3.654 2.988-1.71 0-3.42-.738-4.14-2.196Z" fill="#fff"/><path d="M206.333 144.667a2.334 2.334 0 0 0 2.334 2.333h2.166a2.5 2.5 0 1 0 0-5h-2a2.5 2.5 0 0 1 0-5H211a2.333 2.333 0 0 1 2.333 2.333m-3.5-3.833v1.5m0 10v1.5m10-6.5c0 5.523-4.477 10-10 10s-10-4.477-10-10 4.477-10 10-10 10 4.477 10 10Z" stroke="#fff" strokeWidth="1.5" strokeLinecap="round" strokeLinejoin="round"/><rect x=".5" y="113" width="321.667" height="58" rx="11.5" stroke="url(#d)" stroke-opacity=".4"/><g opacity=".2"><mask id="f" style="mask-type:alpha" maskUnits="userSpaceOnUse" x="104" y="1" width="286" height="286"><path transform="translate(104 1)" fill="url(#e)" d="M0 0h286v286H0z"/></mask><g mask="url(#f)" stroke="#000" strokeWidth=".851"><circle cx="247" cy="144" r="40.431"/><circle cx="247" cy="144" r="40.431"/><circle cx="247" cy="144" r="60.86"/><circle cx="247" cy="144" r="81.289"/><circle cx="247" cy="144" r="101.717"/><circle cx="247" cy="144" r="122.146"/><circle cx="247" cy="144" r="142.574"/></g></g><defs><linearGradient id="c" x1="311" y1="172" x2="29" y2="113" gradientUnits="userSpaceOnUse"><stop/><stop offset="1" stop-color="#313131"/></linearGradient><linearGradient id="d" x1="285" y1="165" x2="285" y2="73" gradientUnits="userSpaceOnUse"><stop stop-color="#fff"/><stop offset="1" stop-color="#fff" stop-opacity="0"/></linearGradient><radialGradient id="e" cx="0" cy="0" r="1" gradientUnits="userSpaceOnUse" gradientTransform="rotate(90 0 143) scale(143)"><stop/><stop offset="1" stop-opacity="0"/></radialGradient><clipPath id="b"><path fill="#fff" transform="translate(226.932 36.068)" d="M0 0h57v19H0z"/></clipPath><filter id="a" x="4.402" y=".207" width="352.17" height="182.17" filterUnits="userSpaceOnUse" color-interpolation-filters="sRGB"><feFlood flood-opacity="0" result="BackgroundImageFix"/><feColorMatrix in="SourceAlpha" values="0 0 0 0 0 0 0 0 0 0 0 0 0 0 0 0 0 0 127 0" result="hardAlpha"/><feOffset dx="22.988" dy="13.793"/><feGaussianBlur stdDeviation="13.793"/><feComposite in2="hardAlpha" operator="out"/><feColorMatrix values="0 0 0 0 0 0 0 0 0 0 0 0 0 0 0 0 0 0 0.08 0"/><feBlend in2="BackgroundImageFix" result="effect1_dropShadow_4_924"/><feBlend in="SourceGraphic" in2="effect1_dropShadow_4_924" result="shape"/></filter></defs></svg>